<svg viewBox="0 0 330 200" xmlns="http://www.w3.org/2000/svg"><g><g><g><g><g><line x1="40" y1="177" x2="35" y2="177" style="visibility: inherit;" fill="rgb(0, 0, 0)" stroke="rgb(204, 204, 204)" stroke-width="1px"></line><line x1="40" y1="151.71428571428572" x2="35" y2="151.71428571428572" style="visibility: inherit;" fill="rgb(0, 0, 0)" stroke="rgb(204, 204, 204)" stroke-width="1px"></line><line x1="40" y1="126.42857142857143" x2="35" y2="126.42857142857143" style="visibility: inherit;" fill="rgb(0, 0, 0)" stroke="rgb(204, 204, 204)" stroke-width="1px"></line><line x1="40" y1="101.14285714285714" x2="35" y2="101.14285714285714" style="visibility: inherit;" fill="rgb(0, 0, 0)" stroke="rgb(204, 204, 204)" stroke-width="1px"></line><line x1="40" y1="75.85714285714286" x2="35" y2="75.85714285714286" style="visibility: inherit;" fill="rgb(0, 0, 0)" stroke="rgb(204, 204, 204)" stroke-width="1px"></line><line x1="40" y1="50.57142857142857" x2="35" y2="50.57142857142857" style="visibility: inherit;" fill="rgb(0, 0, 0)" stroke="rgb(204, 204, 204)" stroke-width="1px"></line><line x1="40" y1="25.285714285714295" x2="35" y2="25.285714285714295" style="visibility: inherit;" fill="rgb(0, 0, 0)" stroke="rgb(204, 204, 204)" stroke-width="1px"></line><line x1="40" y1="0" x2="35" y2="0" style="visibility: inherit;" fill="rgb(0, 0, 0)" stroke="rgb(204, 204, 204)" stroke-width="1px"></line></g><g transform="translate(30, 0)"><text x="0" y="177" dx="0em" dy="0.3em" style="text-anchor: end; visibility: hidden; font-family: Roboto, sans-serif; font-size: 12px; font-weight: 200;" fill="rgb(33, 33, 33)" stroke="none" stroke-width="1px">2</text><text x="0" y="151.71428571428572" dx="0em" dy="0.3em" style="text-anchor: end; visibility: inherit; font-family: Roboto, sans-serif; font-size: 12px; font-weight: 200;" fill="rgb(33, 33, 33)" stroke="none" stroke-width="1px">2.5</text><text x="0" y="126.42857142857143" dx="0em" dy="0.3em" style="text-anchor: end; visibility: inherit; font-family: Roboto, sans-serif; font-size: 12px; font-weight: 200;" fill="rgb(33, 33, 33)" stroke="none" stroke-width="1px">3</text><text x="0" y="101.14285714285714" dx="0em" dy="0.3em" style="text-anchor: end; visibility: inherit; font-family: Roboto, sans-serif; font-size: 12px; font-weight: 200;" fill="rgb(33, 33, 33)" stroke="none" stroke-width="1px">3.5</text><text x="0" y="75.85714285714286" dx="0em" dy="0.3em" style="text-anchor: end; visibility: inherit; font-family: Roboto, sans-serif; font-size: 12px; font-weight: 200;" fill="rgb(33, 33, 33)" stroke="none" stroke-width="1px">4</text><text x="0" y="50.57142857142857" dx="0em" dy="0.3em" style="text-anchor: end; visibility: inherit; font-family: Roboto, sans-serif; font-size: 12px; font-weight: 200;" fill="rgb(33, 33, 33)" stroke="none" stroke-width="1px">4.5</text><text x="0" y="25.285714285714295" dx="0em" dy="0.3em" style="text-anchor: end; visibility: inherit; font-family: Roboto, sans-serif; font-size: 12px; font-weight: 200;" fill="rgb(33, 33, 33)" stroke="none" stroke-width="1px">5</text><text x="0" y="0" dx="0em" dy="0.3em" style="text-anchor: end; visibility: hidden; font-family: Roboto, sans-serif; font-size: 12px; font-weight: 200;" fill="rgb(33, 33, 33)" stroke="none" stroke-width="1px">5.5</text></g><line x1="40" y1="0" x2="40" y2="177" fill="rgb(0, 0, 0)" stroke="rgb(204, 204, 204)" stroke-width="1px"></line></g></g><g transform="translate(40, 0)" clip-path="url(#clip_0)"><clipPath id="clip_0"><rect width="290" height="177"></rect></clipPath><g><g><g><line x1="0" y1="0" x2="0" y2="177" fill="rgb(0, 0, 0)" stroke="rgb(66, 66, 66)" stroke-width="1px" opacity="0.25"></line><line x1="26.363636363636363" y1="0" x2="26.363636363636363" y2="177" fill="rgb(0, 0, 0)" stroke="rgb(66, 66, 66)" stroke-width="1px" opacity="0.25"></line><line x1="52.72727272727273" y1="0" x2="52.72727272727273" y2="177" fill="rgb(0, 0, 0)" stroke="rgb(66, 66, 66)" stroke-width="1px" opacity="0.25"></line><line x1="79.09090909090908" y1="0" x2="79.09090909090908" y2="177" fill="rgb(0, 0, 0)" stroke="rgb(66, 66, 66)" stroke-width="1px" opacity="0.25"></line><line x1="105.45454545454545" y1="0" x2="105.45454545454545" y2="177" fill="rgb(0, 0, 0)" stroke="rgb(66, 66, 66)" stroke-width="1px" opacity="0.25"></line><line x1="131.8181818181818" y1="0" x2="131.8181818181818" y2="177" fill="rgb(0, 0, 0)" stroke="rgb(66, 66, 66)" stroke-width="1px" opacity="0.25"></line><line x1="158.18181818181816" y1="0" x2="158.18181818181816" y2="177" fill="rgb(0, 0, 0)" stroke="rgb(66, 66, 66)" stroke-width="1px" opacity="0.25"></line><line x1="184.54545454545453" y1="0" x2="184.54545454545453" y2="177" fill="rgb(0, 0, 0)" stroke="rgb(66, 66, 66)" stroke-width="1px" opacity="0.25"></line><line x1="210.9090909090909" y1="0" x2="210.9090909090909" y2="177" fill="rgb(0, 0, 0)" stroke="rgb(66, 66, 66)" stroke-width="1px" opacity="0.25"></line><line x1="237.27272727272728" y1="0" x2="237.27272727272728" y2="177" fill="rgb(0, 0, 0)" stroke="rgb(66, 66, 66)" stroke-width="1px" opacity="0.25"></line><line x1="263.6363636363636" y1="0" x2="263.6363636363636" y2="177" fill="rgb(0, 0, 0)" stroke="rgb(66, 66, 66)" stroke-width="1px" opacity="0.25"></line><line x1="290" y1="0" x2="290" y2="177" fill="rgb(0, 0, 0)" stroke="rgb(66, 66, 66)" stroke-width="1px" opacity="0.25"></line></g><g><line x1="0" y1="177" x2="290" y2="177" fill="rgb(0, 0, 0)" stroke="rgb(66, 66, 66)" stroke-width="1px" opacity="0.25"></line><line x1="0" y1="151.71428571428572" x2="290" y2="151.71428571428572" fill="rgb(0, 0, 0)" stroke="rgb(66, 66, 66)" stroke-width="1px" opacity="0.25"></line><line x1="0" y1="126.42857142857143" x2="290" y2="126.42857142857143" fill="rgb(0, 0, 0)" stroke="rgb(66, 66, 66)" stroke-width="1px" opacity="0.25"></line><line x1="0" y1="101.14285714285714" x2="290" y2="101.14285714285714" fill="rgb(0, 0, 0)" stroke="rgb(66, 66, 66)" stroke-width="1px" opacity="0.25"></line><line x1="0" y1="75.85714285714286" x2="290" y2="75.85714285714286" fill="rgb(0, 0, 0)" stroke="rgb(66, 66, 66)" stroke-width="1px" opacity="0.25"></line><line x1="0" y1="50.57142857142857" x2="290" y2="50.57142857142857" fill="rgb(0, 0, 0)" stroke="rgb(66, 66, 66)" stroke-width="1px" opacity="0.25"></line><line x1="0" y1="25.285714285714295" x2="290" y2="25.285714285714295" fill="rgb(0, 0, 0)" stroke="rgb(66, 66, 66)" stroke-width="1px" opacity="0.25"></line><line x1="0" y1="0" x2="290" y2="0" fill="rgb(0, 0, 0)" stroke="rgb(66, 66, 66)" stroke-width="1px" opacity="0.25"></line></g></g></g><g><g><line x1="0" y1="278.1428571428571" x2="290" y2="278.1428571428571" fill="rgb(0, 0, 0)" stroke="rgb(153, 153, 153)" stroke-width="1.5px"></line></g></g><g><g><line x1="26.363636363636363" y1="0" x2="26.363636363636363" y2="177" fill="rgb(0, 0, 0)" stroke="rgb(153, 153, 153)" stroke-width="1.5px"></line></g></g><g><g><g><g><g><path stroke="rgb(0, 119, 187)" stroke-width="2px" d="M26.363636363636363,10.999031066894531L31.636363636363633,18.646817462784913L36.90909090909091,26.090816186398904L42.18181818181818,33.259236426914484L47.45454545454545,39.938269100660065L52.72727272727273,46.28530688825079L58,52.13808213441834L63.272727272727266,57.560855964687384L68.54545454545455,62.62049619357622L73.81818181818181,67.37699720135518L79.09090909090908,71.61269201678816L84.36363636363636,75.37219909960814L89.63636363636364,78.93081956871266L94.9090909090909,82.13494622963779L100.18181818181819,85.07603642557353L105.45454545454545,87.70201063055671L110.72727272727273,90.07942979730528L116,92.30750684463547L121.27272727272727,94.4536070331066L126.54545454545453,96.45511447552236L131.8181818181818,98.28848573058318L137.0909090909091,99.957844185746L142.36363636363637,101.72240953039777L147.63636363636363,103.33754700475518L152.9090909090909,104.703808130656L158.18181818181816,106.08091310268364L163.45454545454544,107.54287736629577L168.72727272727272,108.7899305296582L174,110.00142262264531L179.27272727272728,110.99903001461732L184.54545454545453,112.02482323843785L189.8181818181818,112.99053091087644L195.0909090909091,113.84924772135523L200.36363636363637,114.9389825684107L205.63636363636365,115.71703158214034L210.9090909090909,116.46077555398394L216.1818181818182,117.3669257338112L221.45454545454547,118.14571614918087L226.72727272727275,118.96448578591101L232,119.68148669192644L237.27272727272728,120.28169330587689L242.54545454545453,120.97025453431611L247.8181818181818,121.7403172083783L253.09090909090907,122.31135161270609L258.3636363636364,122.96998098656942L263.6363636363636,123.48980079224785" style="fill: none;" fill="none"></path></g><g><path stroke="rgb(255, 112, 67)" stroke-width="2px" d="M31.636363636363633,-0.6148010322025956L36.90909090909091,9.436180440051922L42.18181818181818,19.069414734339503L47.45454545454545,28.445237212768706L52.72727272727273,36.479333266371185L58,44.60622403418789L63.272727272727266,52.21887548809409L68.54545454545455,59.32012415692041L73.81818181818181,65.53067121646265L79.09090909090908,71.01006555822799L84.36363636363636,76.70686126860059L89.63636363636364,81.65379456463756L94.9090909090909,86.25573495705282L100.18181818181819,90.81917646766895L105.45454545454545,94.68910791849062L110.72727272727273,98.5626390273262L116,102.32829993159183L121.27272727272727,105.53696814258224L126.54545454545453,108.62322061352157L131.8181818181818,111.97013245454065L137.0909090909091,115.1492063916156L142.36363636363637,117.52754209751652L147.63636363636363,119.95585512197822L152.9090909090909,122.68423863074517L158.18181818181816,125.28903161200853L163.45454545454544,127.52326765786357L168.72727272727272,129.9981613659835L174,132.0649130698591L179.27272727272728,134.0416470954917L184.54545454545453,136.319111882011L189.8181818181818,138.0600331813697L195.0909090909091,140.1210244867827L200.36363636363637,141.51601181804492L205.63636363636365,142.53643712763844L210.9090909090909,144.08282382512593L216.1818181818182,145.93006313868696L221.45454545454547,147.61163343236387L226.72727272727275,149.04861472034338L232,150.43408458919373L237.27272727272728,152.12209100384996L242.54545454545453,153.57945711003032L247.8181818181818,154.8250446375152L253.09090909090907,156.1419440168856L258.3636363636364,157.20045209291956L263.6363636363636,158.88006459190734" style="fill: none;" fill="none"></path></g></g></g></g><g opacity="0.2"><g><g><g><path stroke="rgb(0, 119, 187)" stroke-width="2px" d="M26.363636363636363,10.999031066894531L31.636363636363633,23.23548930031913L36.90909090909091,33.237054961068296L42.18181818181818,41.68929862976074L47.45454545454545,48.6584141595023L52.72727272727273,55.065545082092285L58,60.50764438084194L63.272727272727266,65.46731226784843L68.54545454545455,70.08248274666923L73.81818181818181,74.43984685625348L79.09090909090908,77.92781679970878L84.36363636363636,80.99100065231323L89.63636363636364,84.25713075910296L94.9090909090909,86.9348590033395L100.18181818181819,89.48421457835606L105.45454545454545,91.63911989756993L110.72727272727273,93.64455250331334L116,95.64905670710972L121.27272727272727,97.67243037905013L126.54545454545453,99.45719269343785L131.8181818181818,101.03844206673759L137.0909090909091,102.46182693753923L142.36363636363637,104.3692227091108L147.63636363636363,105.76023408344814L152.9090909090909,106.75319010870797L158.18181818181816,108.14656468800136L163.45454545454544,109.73582002094814L168.72727272727272,110.66050836018154L174,111.81865964617049L179.27272727272728,112.49544055121285L184.54545454545453,113.56351273400443L189.8181818181818,114.43909222739083L195.0909090909091,115.13732283455985L200.36363636363637,116.57358476093837L205.63636363636365,116.88410506929671L210.9090909090909,117.57639149257115L216.1818181818182,118.72615098953247L221.45454545454547,119.31390176500594L226.72727272727275,120.19264023644584L232,120.75698804855347L237.27272727272728,121.18200322559902L242.54545454545453,122.00309637614659L247.8181818181818,122.89541121891567L253.09090909090907,123.16790321895054L258.3636363636364,123.95792504719326L263.6363636363636,124.26953050068447" style="fill: none;" fill="none"></path></g><g><path stroke="rgb(255, 112, 67)" stroke-width="2px" d="M26.363636363636363,-12.658073289053792L31.636363636363633,6.611162321908142L36.90909090909091,19.08512265341622L42.18181818181818,30.398098264421733L47.45454545454545,40.686311040605815L52.72727272727273,47.5933803830828L58,56.22780786241803L63.272727272727266,63.31819438934326L68.54545454545455,69.79308659689767L73.81818181818181,74.75260979788644L79.09090909090908,79.1794593674796L84.36363636363636,85.22105312347412L89.63636363636364,89.05804191316878L94.9090909090909,93.14962986537388L100.18181818181819,97.65897457940238L105.45454545454545,100.49127571923393L110.72727272727273,104.37129654203142L116,107.97583518709456L121.27272727272727,110.34948165076119L126.54545454545453,113.25231722423008L131.8181818181818,116.99031666346959L137.0909090909091,119.91771268844604L142.36363636363637,121.09499870027815L147.63636363636363,123.59829589298793L152.9090909090909,126.77679450171334L158.18181818181816,129.19620997565133L163.45454545454544,130.87461600984847L168.72727272727272,133.7104981286185L174,135.16503872190202L179.27272727272728,137.00674704142978L184.54545454545453,139.73530830655778L189.8181818181818,140.67141478402274L195.0909090909091,143.21251119886125L200.36363636363637,143.60849271501814L205.63636363636365,144.06707504817416L210.9090909090909,146.40240383148193L216.1818181818182,148.7009220804487L221.45454545454547,150.1339888572693L226.72727272727275,151.20408664430892L232,152.5122893878392L237.27272727272728,154.65410062244962L242.54545454545453,155.7655062675476L247.8181818181818,156.69342592784335L253.09090909090907,158.11729308537076L258.3636363636364,158.78821420669556L263.6363636363636,161.39948334012715" style="fill: none;" fill="none"></path></g></g></g></g></g></g><g transform="translate(40, 177)" clip-path="url(#clip_1)"><clipPath id="clip_1"><rect width="290" height="23"></rect></clipPath><g><g><line x1="0" y1="0" x2="0" y2="5" style="visibility: inherit;" fill="rgb(0, 0, 0)" stroke="rgb(204, 204, 204)" stroke-width="1px"></line><line x1="26.363636363636363" y1="0" x2="26.363636363636363" y2="5" style="visibility: inherit;" fill="rgb(0, 0, 0)" stroke="rgb(204, 204, 204)" stroke-width="1px"></line><line x1="52.72727272727273" y1="0" x2="52.72727272727273" y2="5" style="visibility: inherit;" fill="rgb(0, 0, 0)" stroke="rgb(204, 204, 204)" stroke-width="1px"></line><line x1="79.09090909090908" y1="0" x2="79.09090909090908" y2="5" style="visibility: inherit;" fill="rgb(0, 0, 0)" stroke="rgb(204, 204, 204)" stroke-width="1px"></line><line x1="105.45454545454545" y1="0" x2="105.45454545454545" y2="5" style="visibility: inherit;" fill="rgb(0, 0, 0)" stroke="rgb(204, 204, 204)" stroke-width="1px"></line><line x1="131.8181818181818" y1="0" x2="131.8181818181818" y2="5" style="visibility: inherit;" fill="rgb(0, 0, 0)" stroke="rgb(204, 204, 204)" stroke-width="1px"></line><line x1="158.18181818181816" y1="0" x2="158.18181818181816" y2="5" style="visibility: inherit;" fill="rgb(0, 0, 0)" stroke="rgb(204, 204, 204)" stroke-width="1px"></line><line x1="184.54545454545453" y1="0" x2="184.54545454545453" y2="5" style="visibility: inherit;" fill="rgb(0, 0, 0)" stroke="rgb(204, 204, 204)" stroke-width="1px"></line><line x1="210.9090909090909" y1="0" x2="210.9090909090909" y2="5" style="visibility: inherit;" fill="rgb(0, 0, 0)" stroke="rgb(204, 204, 204)" stroke-width="1px"></line><line x1="237.27272727272728" y1="0" x2="237.27272727272728" y2="5" style="visibility: inherit;" fill="rgb(0, 0, 0)" stroke="rgb(204, 204, 204)" stroke-width="1px"></line><line x1="263.6363636363636" y1="0" x2="263.6363636363636" y2="5" style="visibility: inherit;" fill="rgb(0, 0, 0)" stroke="rgb(204, 204, 204)" stroke-width="1px"></line><line x1="290" y1="0" x2="290" y2="5" style="visibility: inherit;" fill="rgb(0, 0, 0)" stroke="rgb(204, 204, 204)" stroke-width="1px"></line></g><g transform="translate(0, 8)"><text x="0" y="0" dx="0em" dy="0.95em" style="text-anchor: middle; visibility: hidden; font-family: Roboto, sans-serif; font-size: 12px; font-weight: 200;" fill="rgb(33, 33, 33)" stroke="none" stroke-width="1px">-5</text><text x="26.363636363636363" y="0" dx="0em" dy="0.95em" style="text-anchor: middle; visibility: inherit; font-family: Roboto, sans-serif; font-size: 12px; font-weight: 200;" fill="rgb(33, 33, 33)" stroke="none" stroke-width="1px">0</text><text x="52.72727272727273" y="0" dx="0em" dy="0.95em" style="text-anchor: middle; visibility: inherit; font-family: Roboto, sans-serif; font-size: 12px; font-weight: 200;" fill="rgb(33, 33, 33)" stroke="none" stroke-width="1px">5</text><text x="79.09090909090908" y="0" dx="0em" dy="0.95em" style="text-anchor: middle; visibility: inherit; font-family: Roboto, sans-serif; font-size: 12px; font-weight: 200;" fill="rgb(33, 33, 33)" stroke="none" stroke-width="1px">10</text><text x="105.45454545454545" y="0" dx="0em" dy="0.95em" style="text-anchor: middle; visibility: inherit; font-family: Roboto, sans-serif; font-size: 12px; font-weight: 200;" fill="rgb(33, 33, 33)" stroke="none" stroke-width="1px">15</text><text x="131.8181818181818" y="0" dx="0em" dy="0.95em" style="text-anchor: middle; visibility: inherit; font-family: Roboto, sans-serif; font-size: 12px; font-weight: 200;" fill="rgb(33, 33, 33)" stroke="none" stroke-width="1px">20</text><text x="158.18181818181816" y="0" dx="0em" dy="0.95em" style="text-anchor: middle; visibility: inherit; font-family: Roboto, sans-serif; font-size: 12px; font-weight: 200;" fill="rgb(33, 33, 33)" stroke="none" stroke-width="1px">25</text><text x="184.54545454545453" y="0" dx="0em" dy="0.95em" style="text-anchor: middle; visibility: inherit; font-family: Roboto, sans-serif; font-size: 12px; font-weight: 200;" fill="rgb(33, 33, 33)" stroke="none" stroke-width="1px">30</text><text x="210.9090909090909" y="0" dx="0em" dy="0.95em" style="text-anchor: middle; visibility: inherit; font-family: Roboto, sans-serif; font-size: 12px; font-weight: 200;" fill="rgb(33, 33, 33)" stroke="none" stroke-width="1px">35</text><text x="237.27272727272728" y="0" dx="0em" dy="0.95em" style="text-anchor: middle; visibility: inherit; font-family: Roboto, sans-serif; font-size: 12px; font-weight: 200;" fill="rgb(33, 33, 33)" stroke="none" stroke-width="1px">40</text><text x="263.6363636363636" y="0" dx="0em" dy="0.95em" style="text-anchor: middle; visibility: inherit; font-family: Roboto, sans-serif; font-size: 12px; font-weight: 200;" fill="rgb(33, 33, 33)" stroke="none" stroke-width="1px">45</text><text x="290" y="0" dx="0em" dy="0.95em" style="text-anchor: middle; visibility: hidden; font-family: Roboto, sans-serif; font-size: 12px; font-weight: 200;" fill="rgb(33, 33, 33)" stroke="none" stroke-width="1px">50</text></g><line x1="0" y1="0" x2="290" y2="0" fill="rgb(0, 0, 0)" stroke="rgb(204, 204, 204)" stroke-width="1px"></line></g></g></g></g></svg>