<svg viewBox="0 0 330 200" xmlns="http://www.w3.org/2000/svg"><g><g><g><g><g><line x1="50" y1="177" x2="45" y2="177" style="visibility: inherit;" fill="rgb(0, 0, 0)" stroke="rgb(204, 204, 204)" stroke-width="1px"></line><line x1="50" y1="159.29999999999998" x2="45" y2="159.29999999999998" style="visibility: inherit;" fill="rgb(0, 0, 0)" stroke="rgb(204, 204, 204)" stroke-width="1px"></line><line x1="50" y1="141.59999999999997" x2="45" y2="141.59999999999997" style="visibility: inherit;" fill="rgb(0, 0, 0)" stroke="rgb(204, 204, 204)" stroke-width="1px"></line><line x1="50" y1="123.89999999999999" x2="45" y2="123.89999999999999" style="visibility: inherit;" fill="rgb(0, 0, 0)" stroke="rgb(204, 204, 204)" stroke-width="1px"></line><line x1="50" y1="106.19999999999997" x2="45" y2="106.19999999999997" style="visibility: inherit;" fill="rgb(0, 0, 0)" stroke="rgb(204, 204, 204)" stroke-width="1px"></line><line x1="50" y1="88.49999999999999" x2="45" y2="88.49999999999999" style="visibility: inherit;" fill="rgb(0, 0, 0)" stroke="rgb(204, 204, 204)" stroke-width="1px"></line><line x1="50" y1="70.8" x2="45" y2="70.8" style="visibility: inherit;" fill="rgb(0, 0, 0)" stroke="rgb(204, 204, 204)" stroke-width="1px"></line><line x1="50" y1="53.09999999999999" x2="45" y2="53.09999999999999" style="visibility: inherit;" fill="rgb(0, 0, 0)" stroke="rgb(204, 204, 204)" stroke-width="1px"></line><line x1="50" y1="35.39999999999997" x2="45" y2="35.39999999999997" style="visibility: inherit;" fill="rgb(0, 0, 0)" stroke="rgb(204, 204, 204)" stroke-width="1px"></line><line x1="50" y1="17.700000000000017" x2="45" y2="17.700000000000017" style="visibility: inherit;" fill="rgb(0, 0, 0)" stroke="rgb(204, 204, 204)" stroke-width="1px"></line><line x1="50" y1="0" x2="45" y2="0" style="visibility: inherit;" fill="rgb(0, 0, 0)" stroke="rgb(204, 204, 204)" stroke-width="1px"></line></g><g transform="translate(40, 0)"><text x="0" y="177" dx="0em" dy="0.3em" style="text-anchor: end; visibility: hidden; font-family: Roboto, sans-serif; font-size: 12px; font-weight: 200;" fill="rgb(33, 33, 33)" stroke="none" stroke-width="1px">0.3</text><text x="0" y="159.29999999999998" dx="0em" dy="0.3em" style="text-anchor: end; visibility: inherit; font-family: Roboto, sans-serif; font-size: 12px; font-weight: 200;" fill="rgb(33, 33, 33)" stroke="none" stroke-width="1px">0.32</text><text x="0" y="141.59999999999997" dx="0em" dy="0.3em" style="text-anchor: end; visibility: hidden; font-family: Roboto, sans-serif; font-size: 12px; font-weight: 200;" fill="rgb(33, 33, 33)" stroke="none" stroke-width="1px">0.34</text><text x="0" y="123.89999999999999" dx="0em" dy="0.3em" style="text-anchor: end; visibility: inherit; font-family: Roboto, sans-serif; font-size: 12px; font-weight: 200;" fill="rgb(33, 33, 33)" stroke="none" stroke-width="1px">0.36</text><text x="0" y="106.19999999999997" dx="0em" dy="0.3em" style="text-anchor: end; visibility: hidden; font-family: Roboto, sans-serif; font-size: 12px; font-weight: 200;" fill="rgb(33, 33, 33)" stroke="none" stroke-width="1px">0.38</text><text x="0" y="88.49999999999999" dx="0em" dy="0.3em" style="text-anchor: end; visibility: inherit; font-family: Roboto, sans-serif; font-size: 12px; font-weight: 200;" fill="rgb(33, 33, 33)" stroke="none" stroke-width="1px">0.4</text><text x="0" y="70.8" dx="0em" dy="0.3em" style="text-anchor: end; visibility: hidden; font-family: Roboto, sans-serif; font-size: 12px; font-weight: 200;" fill="rgb(33, 33, 33)" stroke="none" stroke-width="1px">0.42</text><text x="0" y="53.09999999999999" dx="0em" dy="0.3em" style="text-anchor: end; visibility: inherit; font-family: Roboto, sans-serif; font-size: 12px; font-weight: 200;" fill="rgb(33, 33, 33)" stroke="none" stroke-width="1px">0.44</text><text x="0" y="35.39999999999997" dx="0em" dy="0.3em" style="text-anchor: end; visibility: hidden; font-family: Roboto, sans-serif; font-size: 12px; font-weight: 200;" fill="rgb(33, 33, 33)" stroke="none" stroke-width="1px">0.46</text><text x="0" y="17.700000000000017" dx="0em" dy="0.3em" style="text-anchor: end; visibility: inherit; font-family: Roboto, sans-serif; font-size: 12px; font-weight: 200;" fill="rgb(33, 33, 33)" stroke="none" stroke-width="1px">0.48</text><text x="0" y="0" dx="0em" dy="0.3em" style="text-anchor: end; visibility: hidden; font-family: Roboto, sans-serif; font-size: 12px; font-weight: 200;" fill="rgb(33, 33, 33)" stroke="none" stroke-width="1px">0.5</text></g><line x1="50" y1="0" x2="50" y2="177" fill="rgb(0, 0, 0)" stroke="rgb(204, 204, 204)" stroke-width="1px"></line></g></g><g transform="translate(50, 0)" clip-path="url(#clip_0)"><clipPath id="clip_0"><rect width="280" height="177"></rect></clipPath><g><g><g><line x1="0" y1="0" x2="0" y2="177" fill="rgb(0, 0, 0)" stroke="rgb(66, 66, 66)" stroke-width="1px" opacity="0.25"></line><line x1="35" y1="0" x2="35" y2="177" fill="rgb(0, 0, 0)" stroke="rgb(66, 66, 66)" stroke-width="1px" opacity="0.25"></line><line x1="70" y1="0" x2="70" y2="177" fill="rgb(0, 0, 0)" stroke="rgb(66, 66, 66)" stroke-width="1px" opacity="0.25"></line><line x1="105" y1="0" x2="105" y2="177" fill="rgb(0, 0, 0)" stroke="rgb(66, 66, 66)" stroke-width="1px" opacity="0.25"></line><line x1="140" y1="0" x2="140" y2="177" fill="rgb(0, 0, 0)" stroke="rgb(66, 66, 66)" stroke-width="1px" opacity="0.25"></line><line x1="175" y1="0" x2="175" y2="177" fill="rgb(0, 0, 0)" stroke="rgb(66, 66, 66)" stroke-width="1px" opacity="0.25"></line><line x1="210" y1="0" x2="210" y2="177" fill="rgb(0, 0, 0)" stroke="rgb(66, 66, 66)" stroke-width="1px" opacity="0.25"></line><line x1="245" y1="0" x2="245" y2="177" fill="rgb(0, 0, 0)" stroke="rgb(66, 66, 66)" stroke-width="1px" opacity="0.25"></line><line x1="280" y1="0" x2="280" y2="177" fill="rgb(0, 0, 0)" stroke="rgb(66, 66, 66)" stroke-width="1px" opacity="0.25"></line></g><g><line x1="0" y1="177" x2="280" y2="177" fill="rgb(0, 0, 0)" stroke="rgb(66, 66, 66)" stroke-width="1px" opacity="0.25"></line><line x1="0" y1="159.29999999999998" x2="280" y2="159.29999999999998" fill="rgb(0, 0, 0)" stroke="rgb(66, 66, 66)" stroke-width="1px" opacity="0.25"></line><line x1="0" y1="141.59999999999997" x2="280" y2="141.59999999999997" fill="rgb(0, 0, 0)" stroke="rgb(66, 66, 66)" stroke-width="1px" opacity="0.25"></line><line x1="0" y1="123.89999999999999" x2="280" y2="123.89999999999999" fill="rgb(0, 0, 0)" stroke="rgb(66, 66, 66)" stroke-width="1px" opacity="0.25"></line><line x1="0" y1="106.19999999999997" x2="280" y2="106.19999999999997" fill="rgb(0, 0, 0)" stroke="rgb(66, 66, 66)" stroke-width="1px" opacity="0.25"></line><line x1="0" y1="88.49999999999999" x2="280" y2="88.49999999999999" fill="rgb(0, 0, 0)" stroke="rgb(66, 66, 66)" stroke-width="1px" opacity="0.25"></line><line x1="0" y1="70.8" x2="280" y2="70.8" fill="rgb(0, 0, 0)" stroke="rgb(66, 66, 66)" stroke-width="1px" opacity="0.25"></line><line x1="0" y1="53.09999999999999" x2="280" y2="53.09999999999999" fill="rgb(0, 0, 0)" stroke="rgb(66, 66, 66)" stroke-width="1px" opacity="0.25"></line><line x1="0" y1="35.39999999999997" x2="280" y2="35.39999999999997" fill="rgb(0, 0, 0)" stroke="rgb(66, 66, 66)" stroke-width="1px" opacity="0.25"></line><line x1="0" y1="17.700000000000017" x2="280" y2="17.700000000000017" fill="rgb(0, 0, 0)" stroke="rgb(66, 66, 66)" stroke-width="1px" opacity="0.25"></line><line x1="0" y1="0" x2="280" y2="0" fill="rgb(0, 0, 0)" stroke="rgb(66, 66, 66)" stroke-width="1px" opacity="0.25"></line></g></g></g><g><g><line x1="0" y1="442.5" x2="280" y2="442.5" fill="rgb(0, 0, 0)" stroke="rgb(153, 153, 153)" stroke-width="1.5px"></line></g></g><g><g><line x1="35" y1="0" x2="35" y2="177" fill="rgb(0, 0, 0)" stroke="rgb(153, 153, 153)" stroke-width="1.5px"></line></g></g><g><g><g><g><g><path stroke="rgb(0, 119, 187)" stroke-width="2px" d="M35,177.761068046093L38.5,173.68397902697328L42,171.60382483990827L45.5,171.18575705982306L49,168.61471959239162L52.5,166.9782331163738L56,164.7043710731775L59.5,162.71800458431636L63,161.10843424777613L66.5,159.49683913899727L70,159.40908387363115L73.5,158.0491202570341L77,155.0577515365095L80.5,155.87681606465708L84,155.49765918052952L87.5,153.96524252622777L91,153.69850866414296L94.5,152.2336962436203L98,150.9199950439058L101.5,149.0445532764997L105,147.48444009902812L108.5,145.89604599188675L112,145.37791935456L115.5,141.80535404548297L119,139.8792728183326L122.5,137.63640375192702L126,136.29068476067798L129.5,134.17858496011243L133,132.04155011532544L136.5,131.41165882465333L140,130.38139508479574L143.5,129.32834388168428L147,128.69651321345503L150.5,127.66508584508898L154,125.74156093443581L157.5,124.36999950094042L161,124.19939162198229L164.5,121.7051364201884L168,118.90391481601449L171.5,117.2231818575043L175,115.56241311526485L178.5,114.13105885851752L182,113.48969281099619L185.5,110.06064319779104L189,109.74277492859412L192.5,108.24738548089744L196,106.91525880027604L199.5,106.98576881604824L203,105.28851332732198L206.5,102.31315202989644L210,99.44071327135642L213.5,99.4568115144115L217,98.37924848014767L220.5,96.64548867949458L224,94.0831178069612L227.5,95.37247876170326L231,92.88441884424066L234.5,90.30436091366836L238,89.19121916737204L241.5,92.00244656590263L245,90.21007055871269L248.5,85.65552195806842L252,85.53212976991854L255.5,85.02321199500393L259,83.19574633791345L262.5,81.44692742558895L266,79.96275361616954" style="fill: none;" fill="none"></path></g><g><path stroke="rgb(255, 112, 67)" stroke-width="2px" d="M35,136.0911709070206L38.5,131.93169280886653L42,128.71810762553804L45.5,128.67352501544013L49,127.59042917203357L52.5,123.69188543389099L56,122.03145207987484L59.5,122.50210001492974L63,115.80950771758448L66.5,114.02370428672667L70,112.14127554358554L73.5,106.38826390518626L77,105.22923554004656L80.5,103.9910780813418L84,103.35752121682707L87.5,102.70585917633811L91,99.05475579713061L94.5,100.4504895498073L98,99.92955700884023L101.5,95.43363337673136L105,91.64960323677401L108.5,86.82579336612386L112,83.93154807881139L115.5,82.95561243389574L119,83.02198392720501L122.5,82.40987752314557L126,78.1309997421288L129.5,79.04065935336452L133,72.6868221506438L136.5,74.52461857565385L140,73.7258232306941L143.5,71.12776387944622L147,67.99341967167945L150.5,68.1772627314699L154,65.19088381644872L157.5,64.75725581268316L161,62.16098759963617L164.5,57.39787674800892L168,58.07132421200313L171.5,58.095096041382355L175,54.74103247231712L178.5,51.31607296961511L182,51.76017596077607L185.5,48.875630996631656L189,49.10069877031227L192.5,45.05249741125356L196,42.67790920992698L199.5,43.589247688433154L203,40.27878333610643L206.5,38.07518481897924L210,37.73092835955228L213.5,30.135793088726437L217,27.969135939386987L220.5,27.59271168667488L224,26.008668386687326L227.5,23.917352464048964L231,22.390931490807677L234.5,17.780788209288012L238,19.90420494452056L241.5,16.506061637252053L245,13.489273002057878L248.5,10.646975106185401L252,10.191130439153746L255.5,8.72241163236582L259,5.450756335155251L262.5,6.91041188472272L266,2.625060540639004" style="fill: none;" fill="none"></path></g></g></g></g><g opacity="0.2"><g><g><g><path stroke="rgb(0, 119, 187)" stroke-width="2px" d="M35,177.761068046093L38.5,171.2377256155014L42,169.60687682032585L45.5,170.6941093504429L49,165.25797307491302L52.5,164.71438318490982L56,161.45271196961403L59.5,159.82186317443848L63,158.73463064432144L66.5,157.1038082242012L70,159.27824690937996L73.5,156.01657569408417L77,150.58046579360962L80.5,157.1038082242012L84,154.92936953902245L87.5,151.66769832372665L91,153.2985207438469L94.5,150.0368495285511L98,148.94964337348938L101.5,146.2315620481968L105,145.14435589313507L108.5,143.51350709795952L112,144.60073962807655L115.5,136.44654840230942L119,136.99016466736794L122.5,134.27210971713066L126,134.27210971713066L129.5,131.01043850183487L133,128.8359998166561L136.5,130.46682223677635L140,128.8359998166561L143.5,127.74876728653908L147,127.74876728653908L150.5,126.11794486641884L154,122.85627365112305L157.5,122.31265738606453L161,123.94347980618477L164.5,117.9637536406517L168,114.70208242535591L171.5,114.70208242535591L175,113.07126000523567L178.5,111.98402747511864L182,112.52764374017715L185.5,104.91706877946854L189,109.26597252488136L192.5,106.00430130958557L196,104.91706877946854L199.5,107.0915338397026L203,102.74263009428978L206.5,97.85011008381844L210,95.13205513358116L213.5,99.48095887899399L217,96.76290392875671L220.5,94.04484897851944L224,90.23956149816513L227.5,97.30652019381523L231,89.1523289680481L234.5,86.43427401781082L238,87.52150654792786L241.5,96.2192876636982L245,87.52150654792786L248.5,78.8236990571022L252,85.34704148769379L255.5,84.25983533263206L259,80.45454785227776L262.5,78.8236990571022L266,77.73649290204048" style="fill: none;" fill="none"></path></g><g><path stroke="rgb(255, 112, 67)" stroke-width="2px" d="M35,136.09117090702057L38.5,129.43600594997406L42,125.63306584954262L45.5,128.6210958659649L49,126.17633923888206L52.5,118.29879596829414L56,119.65700581669807L59.5,123.1883092224598L63,105.93923404812813L66.5,111.37199431657791L70,109.33470591902733L73.5,97.79005408287048L77,103.4944774210453L80.5,102.13626757264137L84,102.40793064236641L87.5,101.72882571816444L91,93.5796457529068L94.5,102.54373580217361L98,99.1482375562191L101.5,88.69015887379646L105,85.97376555204391L108.5,79.59023728966713L112,79.59023728966713L115.5,81.49172052741051L119,83.12154069542885L122.5,81.49172052741051L126,71.71269401907921L129.5,80.4051473736763L133,63.156072199344635L136.5,77.28131219744682L140,72.52763047814369L143.5,67.23067536950111L147,63.29190373420715L150.5,68.45302730798721L154,60.71131557226181L157.5,64.10681381821632L161,58.2665853202343L164.5,50.25321051478386L168,59.08149540424347L171.5,58.13075378537178L175,49.70993712544441L178.5,46.17863371968269L182,52.42633044719696L185.5,44.54881355166435L189,49.43830043077469L192.5,38.98019537329674L196,39.116026908159256L199.5,44.95625540614128L203,35.313086807727814L206.5,34.769787043333054L210,37.21454367041588L213.5,18.7430901825428L217,24.719150215387344L220.5,27.02807530760765L224,23.63260343670845L227.5,20.780378580093384L231,20.10130003094673L234.5,10.865573287010193L238,23.089330047369003L241.5,11.40884667634964L245,8.964090049266815L248.5,6.383528262376785L252,9.507363438606262L255.5,6.5193334221839905L259,0.543273389339447L262.5,9.09989520907402L266,-3.8029664754867554" style="fill: none;" fill="none"></path></g></g></g></g></g></g><g transform="translate(50, 177)" clip-path="url(#clip_1)"><clipPath id="clip_1"><rect width="280" height="23"></rect></clipPath><g><g><line x1="0" y1="0" x2="0" y2="5" style="visibility: inherit;" fill="rgb(0, 0, 0)" stroke="rgb(204, 204, 204)" stroke-width="1px"></line><line x1="35" y1="0" x2="35" y2="5" style="visibility: inherit;" fill="rgb(0, 0, 0)" stroke="rgb(204, 204, 204)" stroke-width="1px"></line><line x1="70" y1="0" x2="70" y2="5" style="visibility: inherit;" fill="rgb(0, 0, 0)" stroke="rgb(204, 204, 204)" stroke-width="1px"></line><line x1="105" y1="0" x2="105" y2="5" style="visibility: inherit;" fill="rgb(0, 0, 0)" stroke="rgb(204, 204, 204)" stroke-width="1px"></line><line x1="140" y1="0" x2="140" y2="5" style="visibility: inherit;" fill="rgb(0, 0, 0)" stroke="rgb(204, 204, 204)" stroke-width="1px"></line><line x1="175" y1="0" x2="175" y2="5" style="visibility: inherit;" fill="rgb(0, 0, 0)" stroke="rgb(204, 204, 204)" stroke-width="1px"></line><line x1="210" y1="0" x2="210" y2="5" style="visibility: inherit;" fill="rgb(0, 0, 0)" stroke="rgb(204, 204, 204)" stroke-width="1px"></line><line x1="245" y1="0" x2="245" y2="5" style="visibility: inherit;" fill="rgb(0, 0, 0)" stroke="rgb(204, 204, 204)" stroke-width="1px"></line><line x1="280" y1="0" x2="280" y2="5" style="visibility: inherit;" fill="rgb(0, 0, 0)" stroke="rgb(204, 204, 204)" stroke-width="1px"></line></g><g transform="translate(0, 8)"><text x="0" y="0" dx="0em" dy="0.95em" style="text-anchor: middle; visibility: hidden; font-family: Roboto, sans-serif; font-size: 12px; font-weight: 200;" fill="rgb(33, 33, 33)" stroke="none" stroke-width="1px">-10</text><text x="35" y="0" dx="0em" dy="0.95em" style="text-anchor: middle; visibility: inherit; font-family: Roboto, sans-serif; font-size: 12px; font-weight: 200;" fill="rgb(33, 33, 33)" stroke="none" stroke-width="1px">0</text><text x="70" y="0" dx="0em" dy="0.95em" style="text-anchor: middle; visibility: inherit; font-family: Roboto, sans-serif; font-size: 12px; font-weight: 200;" fill="rgb(33, 33, 33)" stroke="none" stroke-width="1px">10</text><text x="105" y="0" dx="0em" dy="0.95em" style="text-anchor: middle; visibility: inherit; font-family: Roboto, sans-serif; font-size: 12px; font-weight: 200;" fill="rgb(33, 33, 33)" stroke="none" stroke-width="1px">20</text><text x="140" y="0" dx="0em" dy="0.95em" style="text-anchor: middle; visibility: inherit; font-family: Roboto, sans-serif; font-size: 12px; font-weight: 200;" fill="rgb(33, 33, 33)" stroke="none" stroke-width="1px">30</text><text x="175" y="0" dx="0em" dy="0.95em" style="text-anchor: middle; visibility: inherit; font-family: Roboto, sans-serif; font-size: 12px; font-weight: 200;" fill="rgb(33, 33, 33)" stroke="none" stroke-width="1px">40</text><text x="210" y="0" dx="0em" dy="0.95em" style="text-anchor: middle; visibility: inherit; font-family: Roboto, sans-serif; font-size: 12px; font-weight: 200;" fill="rgb(33, 33, 33)" stroke="none" stroke-width="1px">50</text><text x="245" y="0" dx="0em" dy="0.95em" style="text-anchor: middle; visibility: inherit; font-family: Roboto, sans-serif; font-size: 12px; font-weight: 200;" fill="rgb(33, 33, 33)" stroke="none" stroke-width="1px">60</text><text x="280" y="0" dx="0em" dy="0.95em" style="text-anchor: middle; visibility: hidden; font-family: Roboto, sans-serif; font-size: 12px; font-weight: 200;" fill="rgb(33, 33, 33)" stroke="none" stroke-width="1px">70</text></g><line x1="0" y1="0" x2="280" y2="0" fill="rgb(0, 0, 0)" stroke="rgb(204, 204, 204)" stroke-width="1px"></line></g></g></g></g></svg>