<svg viewBox="0 0 330 200" xmlns="http://www.w3.org/2000/svg"><g><g><g><g><g><line x1="40" y1="177" x2="35" y2="177" style="visibility: inherit;" fill="rgb(0, 0, 0)" stroke="rgb(204, 204, 204)" stroke-width="1px"></line><line x1="40" y1="160.9090909090909" x2="35" y2="160.9090909090909" style="visibility: inherit;" fill="rgb(0, 0, 0)" stroke="rgb(204, 204, 204)" stroke-width="1px"></line><line x1="40" y1="144.81818181818178" x2="35" y2="144.81818181818178" style="visibility: inherit;" fill="rgb(0, 0, 0)" stroke="rgb(204, 204, 204)" stroke-width="1px"></line><line x1="40" y1="128.7272727272727" x2="35" y2="128.7272727272727" style="visibility: inherit;" fill="rgb(0, 0, 0)" stroke="rgb(204, 204, 204)" stroke-width="1px"></line><line x1="40" y1="112.63636363636365" x2="35" y2="112.63636363636365" style="visibility: inherit;" fill="rgb(0, 0, 0)" stroke="rgb(204, 204, 204)" stroke-width="1px"></line><line x1="40" y1="96.54545454545453" x2="35" y2="96.54545454545453" style="visibility: inherit;" fill="rgb(0, 0, 0)" stroke="rgb(204, 204, 204)" stroke-width="1px"></line><line x1="40" y1="80.45454545454544" x2="35" y2="80.45454545454544" style="visibility: inherit;" fill="rgb(0, 0, 0)" stroke="rgb(204, 204, 204)" stroke-width="1px"></line><line x1="40" y1="64.36363636363635" x2="35" y2="64.36363636363635" style="visibility: inherit;" fill="rgb(0, 0, 0)" stroke="rgb(204, 204, 204)" stroke-width="1px"></line><line x1="40" y1="48.27272727272725" x2="35" y2="48.27272727272725" style="visibility: inherit;" fill="rgb(0, 0, 0)" stroke="rgb(204, 204, 204)" stroke-width="1px"></line><line x1="40" y1="32.181818181818215" x2="35" y2="32.181818181818215" style="visibility: inherit;" fill="rgb(0, 0, 0)" stroke="rgb(204, 204, 204)" stroke-width="1px"></line><line x1="40" y1="16.090909090909097" x2="35" y2="16.090909090909097" style="visibility: inherit;" fill="rgb(0, 0, 0)" stroke="rgb(204, 204, 204)" stroke-width="1px"></line><line x1="40" y1="0" x2="35" y2="0" style="visibility: inherit;" fill="rgb(0, 0, 0)" stroke="rgb(204, 204, 204)" stroke-width="1px"></line></g><g transform="translate(30, 0)"><text x="0" y="177" dx="0em" dy="0.3em" style="text-anchor: end; visibility: hidden; font-family: Roboto, sans-serif; font-size: 12px; font-weight: 200;" fill="rgb(33, 33, 33)" stroke="none" stroke-width="1px">1.9</text><text x="0" y="160.9090909090909" dx="0em" dy="0.3em" style="text-anchor: end; visibility: inherit; font-family: Roboto, sans-serif; font-size: 12px; font-weight: 200;" fill="rgb(33, 33, 33)" stroke="none" stroke-width="1px">2</text><text x="0" y="144.81818181818178" dx="0em" dy="0.3em" style="text-anchor: end; visibility: hidden; font-family: Roboto, sans-serif; font-size: 12px; font-weight: 200;" fill="rgb(33, 33, 33)" stroke="none" stroke-width="1px">2.1</text><text x="0" y="128.7272727272727" dx="0em" dy="0.3em" style="text-anchor: end; visibility: inherit; font-family: Roboto, sans-serif; font-size: 12px; font-weight: 200;" fill="rgb(33, 33, 33)" stroke="none" stroke-width="1px">2.2</text><text x="0" y="112.63636363636365" dx="0em" dy="0.3em" style="text-anchor: end; visibility: hidden; font-family: Roboto, sans-serif; font-size: 12px; font-weight: 200;" fill="rgb(33, 33, 33)" stroke="none" stroke-width="1px">2.3</text><text x="0" y="96.54545454545453" dx="0em" dy="0.3em" style="text-anchor: end; visibility: inherit; font-family: Roboto, sans-serif; font-size: 12px; font-weight: 200;" fill="rgb(33, 33, 33)" stroke="none" stroke-width="1px">2.4</text><text x="0" y="80.45454545454544" dx="0em" dy="0.3em" style="text-anchor: end; visibility: hidden; font-family: Roboto, sans-serif; font-size: 12px; font-weight: 200;" fill="rgb(33, 33, 33)" stroke="none" stroke-width="1px">2.5</text><text x="0" y="64.36363636363635" dx="0em" dy="0.3em" style="text-anchor: end; visibility: inherit; font-family: Roboto, sans-serif; font-size: 12px; font-weight: 200;" fill="rgb(33, 33, 33)" stroke="none" stroke-width="1px">2.6</text><text x="0" y="48.27272727272725" dx="0em" dy="0.3em" style="text-anchor: end; visibility: hidden; font-family: Roboto, sans-serif; font-size: 12px; font-weight: 200;" fill="rgb(33, 33, 33)" stroke="none" stroke-width="1px">2.7</text><text x="0" y="32.181818181818215" dx="0em" dy="0.3em" style="text-anchor: end; visibility: inherit; font-family: Roboto, sans-serif; font-size: 12px; font-weight: 200;" fill="rgb(33, 33, 33)" stroke="none" stroke-width="1px">2.8</text><text x="0" y="16.090909090909097" dx="0em" dy="0.3em" style="text-anchor: end; visibility: hidden; font-family: Roboto, sans-serif; font-size: 12px; font-weight: 200;" fill="rgb(33, 33, 33)" stroke="none" stroke-width="1px">2.9</text><text x="0" y="0" dx="0em" dy="0.3em" style="text-anchor: end; visibility: hidden; font-family: Roboto, sans-serif; font-size: 12px; font-weight: 200;" fill="rgb(33, 33, 33)" stroke="none" stroke-width="1px">3</text></g><line x1="40" y1="0" x2="40" y2="177" fill="rgb(0, 0, 0)" stroke="rgb(204, 204, 204)" stroke-width="1px"></line></g></g><g transform="translate(40, 0)" clip-path="url(#clip_0)"><clipPath id="clip_0"><rect width="290" height="177"></rect></clipPath><g><g><g><line x1="0" y1="0" x2="0" y2="177" fill="rgb(0, 0, 0)" stroke="rgb(66, 66, 66)" stroke-width="1px" opacity="0.25"></line><line x1="36.25" y1="0" x2="36.25" y2="177" fill="rgb(0, 0, 0)" stroke="rgb(66, 66, 66)" stroke-width="1px" opacity="0.25"></line><line x1="72.5" y1="0" x2="72.5" y2="177" fill="rgb(0, 0, 0)" stroke="rgb(66, 66, 66)" stroke-width="1px" opacity="0.25"></line><line x1="108.75" y1="0" x2="108.75" y2="177" fill="rgb(0, 0, 0)" stroke="rgb(66, 66, 66)" stroke-width="1px" opacity="0.25"></line><line x1="145" y1="0" x2="145" y2="177" fill="rgb(0, 0, 0)" stroke="rgb(66, 66, 66)" stroke-width="1px" opacity="0.25"></line><line x1="181.25" y1="0" x2="181.25" y2="177" fill="rgb(0, 0, 0)" stroke="rgb(66, 66, 66)" stroke-width="1px" opacity="0.25"></line><line x1="217.5" y1="0" x2="217.5" y2="177" fill="rgb(0, 0, 0)" stroke="rgb(66, 66, 66)" stroke-width="1px" opacity="0.25"></line><line x1="253.75" y1="0" x2="253.75" y2="177" fill="rgb(0, 0, 0)" stroke="rgb(66, 66, 66)" stroke-width="1px" opacity="0.25"></line><line x1="290" y1="0" x2="290" y2="177" fill="rgb(0, 0, 0)" stroke="rgb(66, 66, 66)" stroke-width="1px" opacity="0.25"></line></g><g><line x1="0" y1="177" x2="290" y2="177" fill="rgb(0, 0, 0)" stroke="rgb(66, 66, 66)" stroke-width="1px" opacity="0.25"></line><line x1="0" y1="160.9090909090909" x2="290" y2="160.9090909090909" fill="rgb(0, 0, 0)" stroke="rgb(66, 66, 66)" stroke-width="1px" opacity="0.25"></line><line x1="0" y1="144.81818181818178" x2="290" y2="144.81818181818178" fill="rgb(0, 0, 0)" stroke="rgb(66, 66, 66)" stroke-width="1px" opacity="0.25"></line><line x1="0" y1="128.7272727272727" x2="290" y2="128.7272727272727" fill="rgb(0, 0, 0)" stroke="rgb(66, 66, 66)" stroke-width="1px" opacity="0.25"></line><line x1="0" y1="112.63636363636365" x2="290" y2="112.63636363636365" fill="rgb(0, 0, 0)" stroke="rgb(66, 66, 66)" stroke-width="1px" opacity="0.25"></line><line x1="0" y1="96.54545454545453" x2="290" y2="96.54545454545453" fill="rgb(0, 0, 0)" stroke="rgb(66, 66, 66)" stroke-width="1px" opacity="0.25"></line><line x1="0" y1="80.45454545454544" x2="290" y2="80.45454545454544" fill="rgb(0, 0, 0)" stroke="rgb(66, 66, 66)" stroke-width="1px" opacity="0.25"></line><line x1="0" y1="64.36363636363635" x2="290" y2="64.36363636363635" fill="rgb(0, 0, 0)" stroke="rgb(66, 66, 66)" stroke-width="1px" opacity="0.25"></line><line x1="0" y1="48.27272727272725" x2="290" y2="48.27272727272725" fill="rgb(0, 0, 0)" stroke="rgb(66, 66, 66)" stroke-width="1px" opacity="0.25"></line><line x1="0" y1="32.181818181818215" x2="290" y2="32.181818181818215" fill="rgb(0, 0, 0)" stroke="rgb(66, 66, 66)" stroke-width="1px" opacity="0.25"></line><line x1="0" y1="16.090909090909097" x2="290" y2="16.090909090909097" fill="rgb(0, 0, 0)" stroke="rgb(66, 66, 66)" stroke-width="1px" opacity="0.25"></line><line x1="0" y1="0" x2="290" y2="0" fill="rgb(0, 0, 0)" stroke="rgb(66, 66, 66)" stroke-width="1px" opacity="0.25"></line></g></g></g><g><g><line x1="0" y1="482.7272727272727" x2="290" y2="482.7272727272727" fill="rgb(0, 0, 0)" stroke="rgb(153, 153, 153)" stroke-width="1.5px"></line></g></g><g><g><line x1="36.25" y1="0" x2="36.25" y2="177" fill="rgb(0, 0, 0)" stroke="rgb(153, 153, 153)" stroke-width="1.5px"></line></g></g><g><g><g><g><g><path stroke="rgb(0, 119, 187)" stroke-width="2px" d="M36.25,0.2907202460549059L39.875,2.95997175303373L43.5,3.34831630586464L47.125,3.857971864906844L50.75,5.802746797223157L54.375,7.566710356657504L58,8.270796558791709L61.625,9.352686112428566L65.25,11.102365702741386L68.875,13.610937026616611L72.5,15.940027864468433L76.125,17.9882368816048L79.75,19.677469047552698L83.375,20.79986224142597L87,21.302028247697063L90.625,23.22230610303573L94.25,23.15556486894926L97.875,25.810269015240923L101.5,26.64979328744865L105.125,28.429192062850266L108.75,30.04411382653937L112.375,31.6662487971588L116,32.370338806435925L119.625,34.32323258746583L123.25,36.046604059007784L126.875,38.200769520634196L130.5,39.740068161495L134.125,41.479106003193465L137.75,43.48085402397702L141.375,44.57471411592142L145,45.99367011687022L148.625,47.425057004986414L152.25,48.64763849970925L155.875,49.73052737454277L159.5,51.559116335754666L163.125,53.11425574847354L166.75,54.20705521268857L170.375,55.95901646278166L174,56.51175645316364L177.625,57.60875659816818L181.25,60.1789276045947L184.875,61.09384481878457L188.5,62.28055357560104L192.125,64.6286685881946L195.75,65.46573406898608L199.375,67.06195310628614L203,68.2711049831574L206.625,68.84536633754693L210.25,70.77773600738817L213.875,72.2460471116191L217.5,73.69009037316302L221.125,74.8447966437509L224.75,75.99936610173656L228.375,76.88688803956079L232,77.53482995341993L235.625,78.10138791096146L239.25,79.20845891248737L242.875,80.86125776839658L246.5,81.80958608193652L250.125,81.30990802886156L253.75,83.10954792719691L257.375,84.92441137142494L261,86.00042388362378L264.625,87.30602542961164L268.25,88.26412541457186L271.875,89.3390794725146L275.5,90.377326041136" style="fill: none;" fill="none"></path></g><g><path stroke="rgb(255, 112, 67)" stroke-width="2px" d="M36.25,53.29238176345831L39.875,54.478396068919785L43.5,55.78143145467447L47.125,55.611204694617875L50.75,58.24240182718714L54.375,60.684629826471955L58,63.737690194877636L61.625,64.58655041790698L65.25,67.64122180351097L68.875,70.32001310760064L72.5,71.26357327040151L76.125,75.75636213184306L79.75,77.5801957201777L83.375,78.75682223099768L87,81.64915456308331L90.625,83.74458825991793L94.25,85.33708664819433L97.875,85.78405761636766L101.5,88.04710786930188L105.125,90.69617364560258L108.75,92.73123987151901L112.375,95.2678676195811L116,98.56118176764573L119.625,100.0731499302858L123.25,101.36554509122834L126.875,101.18045814701031L130.5,105.69803939058583L134.125,106.21117151069227L137.75,110.78161403644754L141.375,110.03679999021958L145,111.6129381424842L148.625,113.63157741742958L152.25,115.99157010732486L155.875,116.96412710646437L159.5,118.99286856199322L163.125,120.40154836189184L166.75,122.55867259196937L170.375,127.17394064396319L174,127.88689831102872L177.625,130.32157101266003L181.25,133.00281653746976L184.875,134.8029067250782L188.5,135.3534648173991L192.125,136.52718762338657L195.75,136.95458872625363L199.375,138.73580298575789L203,140.00146017257234L206.625,141.33014135126498L210.25,143.77772646506668L213.875,143.55497471362733L217.5,147.0806391188263L221.125,151.3302880560194L224.75,152.4896075204478L228.375,154.0080395429266L232,155.69527347509677L235.625,156.12024998441117L239.25,157.83663262753228L242.875,160.63739276372013L246.5,160.50352125865157L250.125,163.49274072025122L253.75,165.66730083265793L257.375,166.69203547652626L261,168.03623957426802L264.625,168.00647136997418L268.25,170.85583024227816L271.875,171.9861227507191L275.5,173.56645942050093" style="fill: none;" fill="none"></path></g></g></g></g><g opacity="0.2"><g><g><g><path stroke="rgb(0, 119, 187)" stroke-width="2px" d="M36.25,0.2907202460549059L39.875,4.561522657221005L43.5,3.721127076582468L47.125,4.457326802340416L50.75,8.341844948855307L54.375,10.006906986236572L58,9.277651093222875L61.625,10.93009146777067L65.25,13.68280324068937L68.875,17.335873083634816L72.5,19.412539438767872L76.125,21.04940414428711L79.75,22.205801660364315L83.375,22.481253147125244L87,22.054686979814015L90.625,26.101368557323106L94.25,23.055481260473066L97.875,29.791651205583058L101.5,27.908951802687206L105.125,31.09812758185647L108.75,32.4664079059254L112.375,34.09939787604593L116,33.42645991932262L119.625,37.25255012512207L123.25,38.631649017333984L126.875,41.43200852654196L130.5,42.049012184143066L134.125,44.08766009590842L137.75,46.483474211259306L141.375,46.215503649278105L145,48.122103647752226L148.625,49.572137052362606L152.25,50.481510595841826L155.875,51.35486060922795L159.5,54.3019996989857L163.125,55.44696482745083L166.75,55.84625439210371L170.375,58.586958321658045L174,57.34086643565785L177.625,59.25425681200893L181.25,64.03418410908093L184.875,62.46622063896872L188.5,64.06061670996927L192.125,68.150841106068L195.75,66.72133228995584L199.375,69.4562816619873L203,70.08483279835094L206.625,69.706758369099L210.25,73.67629051208496L213.875,74.448513767936L217.5,75.85615526546131L221.125,76.57685604962435L224.75,77.73122028871015L228.375,78.2181709462946L232,78.50674282420765L235.625,78.95122484727338L239.25,80.8690654147755L242.875,83.34045605225995L246.5,83.2320785522461L250.125,80.56039094924927L253.75,85.80900777469982L257.375,87.64670653776687L261,87.61444265192205L264.625,89.2644277485934L268.25,89.70127539201215L271.875,90.9515105594288L275.5,91.93469589406793" style="fill: none;" fill="none"></path></g><g><path stroke="rgb(255, 112, 67)" stroke-width="2px" d="M36.25,53.29238176345825L39.875,55.1900046521967L43.5,57.03234542499889L47.125,55.41101802479137L50.75,61.67769280346957L54.375,64.0631103515625L58,68.10361537066372L61.625,65.82419677214187L65.25,72.14626875790682L68.875,74.29770599712025L72.5,72.67035549337213L76.125,82.47109586542302L79.75,80.30999096957119L83.375,80.51945686340332L87,85.98425323312932L90.625,86.88626094297928L94.25,87.72516033866187L97.875,86.45440058274701L101.5,91.44133849577472L105.125,94.66953017494895L108.75,95.78372760252518L112.375,99.07272577285767L116,103.50108796899968L119.625,102.34108426354148L123.25,103.30412864685059L126.875,100.90282851999456L130.5,112.47439969669686L134.125,106.98086890307339L137.75,117.63727361505681L141.375,108.91957933252507L145,113.97714484821664L148.625,116.659535928206L152.25,119.531558860432L155.875,118.42296253551135L159.5,122.03598065809769L163.125,122.51456802541558L166.75,125.79435890371148L170.375,134.09684267911044L174,128.95633480765602L177.625,133.97358005697077L181.25,137.0246848193082L184.875,137.50304200432518L188.5,136.17930195548317L192.125,138.28777183185923L195.75,137.59569038044322L199.375,141.40762437473643L203,141.89994595267555L206.625,143.32316311922938L210.25,147.4491041356867L213.875,143.22084708647293L217.5,152.3691357265819L221.125,157.7047614617781L224.75,154.2285867170854L228.375,156.28568757664073L232,158.22612437334925L235.625,156.75771474838254L239.25,160.411206592213L242.875,164.83853296800092L246.5,160.30271400104868L250.125,167.97656991265038L253.75,168.92914100126785L257.375,168.22913744232872L261,170.0525457208807L264.625,167.96181906353343L268.25,175.12986855073407L271.875,173.68156151338056L275.5,175.93696442517367" style="fill: none;" fill="none"></path></g></g></g></g></g></g><g transform="translate(40, 177)" clip-path="url(#clip_1)"><clipPath id="clip_1"><rect width="290" height="23"></rect></clipPath><g><g><line x1="0" y1="0" x2="0" y2="5" style="visibility: inherit;" fill="rgb(0, 0, 0)" stroke="rgb(204, 204, 204)" stroke-width="1px"></line><line x1="36.25" y1="0" x2="36.25" y2="5" style="visibility: inherit;" fill="rgb(0, 0, 0)" stroke="rgb(204, 204, 204)" stroke-width="1px"></line><line x1="72.5" y1="0" x2="72.5" y2="5" style="visibility: inherit;" fill="rgb(0, 0, 0)" stroke="rgb(204, 204, 204)" stroke-width="1px"></line><line x1="108.75" y1="0" x2="108.75" y2="5" style="visibility: inherit;" fill="rgb(0, 0, 0)" stroke="rgb(204, 204, 204)" stroke-width="1px"></line><line x1="145" y1="0" x2="145" y2="5" style="visibility: inherit;" fill="rgb(0, 0, 0)" stroke="rgb(204, 204, 204)" stroke-width="1px"></line><line x1="181.25" y1="0" x2="181.25" y2="5" style="visibility: inherit;" fill="rgb(0, 0, 0)" stroke="rgb(204, 204, 204)" stroke-width="1px"></line><line x1="217.5" y1="0" x2="217.5" y2="5" style="visibility: inherit;" fill="rgb(0, 0, 0)" stroke="rgb(204, 204, 204)" stroke-width="1px"></line><line x1="253.75" y1="0" x2="253.75" y2="5" style="visibility: inherit;" fill="rgb(0, 0, 0)" stroke="rgb(204, 204, 204)" stroke-width="1px"></line><line x1="290" y1="0" x2="290" y2="5" style="visibility: inherit;" fill="rgb(0, 0, 0)" stroke="rgb(204, 204, 204)" stroke-width="1px"></line></g><g transform="translate(0, 8)"><text x="0" y="0" dx="0em" dy="0.95em" style="text-anchor: middle; visibility: hidden; font-family: Roboto, sans-serif; font-size: 12px; font-weight: 200;" fill="rgb(33, 33, 33)" stroke="none" stroke-width="1px">-10</text><text x="36.25" y="0" dx="0em" dy="0.95em" style="text-anchor: middle; visibility: inherit; font-family: Roboto, sans-serif; font-size: 12px; font-weight: 200;" fill="rgb(33, 33, 33)" stroke="none" stroke-width="1px">0</text><text x="72.5" y="0" dx="0em" dy="0.95em" style="text-anchor: middle; visibility: inherit; font-family: Roboto, sans-serif; font-size: 12px; font-weight: 200;" fill="rgb(33, 33, 33)" stroke="none" stroke-width="1px">10</text><text x="108.75" y="0" dx="0em" dy="0.95em" style="text-anchor: middle; visibility: inherit; font-family: Roboto, sans-serif; font-size: 12px; font-weight: 200;" fill="rgb(33, 33, 33)" stroke="none" stroke-width="1px">20</text><text x="145" y="0" dx="0em" dy="0.95em" style="text-anchor: middle; visibility: inherit; font-family: Roboto, sans-serif; font-size: 12px; font-weight: 200;" fill="rgb(33, 33, 33)" stroke="none" stroke-width="1px">30</text><text x="181.25" y="0" dx="0em" dy="0.95em" style="text-anchor: middle; visibility: inherit; font-family: Roboto, sans-serif; font-size: 12px; font-weight: 200;" fill="rgb(33, 33, 33)" stroke="none" stroke-width="1px">40</text><text x="217.5" y="0" dx="0em" dy="0.95em" style="text-anchor: middle; visibility: inherit; font-family: Roboto, sans-serif; font-size: 12px; font-weight: 200;" fill="rgb(33, 33, 33)" stroke="none" stroke-width="1px">50</text><text x="253.75" y="0" dx="0em" dy="0.95em" style="text-anchor: middle; visibility: inherit; font-family: Roboto, sans-serif; font-size: 12px; font-weight: 200;" fill="rgb(33, 33, 33)" stroke="none" stroke-width="1px">60</text><text x="290" y="0" dx="0em" dy="0.95em" style="text-anchor: middle; visibility: hidden; font-family: Roboto, sans-serif; font-size: 12px; font-weight: 200;" fill="rgb(33, 33, 33)" stroke="none" stroke-width="1px">70</text></g><line x1="0" y1="0" x2="290" y2="0" fill="rgb(0, 0, 0)" stroke="rgb(204, 204, 204)" stroke-width="1px"></line></g></g></g></g></svg>