<svg viewBox="0 0 330 200" xmlns="http://www.w3.org/2000/svg"><g><g><g><g><g><line x1="40" y1="177" x2="35" y2="177" style="visibility: inherit;" fill="rgb(0, 0, 0)" stroke="rgb(204, 204, 204)" stroke-width="1px"></line><line x1="40" y1="160.9090909090909" x2="35" y2="160.9090909090909" style="visibility: inherit;" fill="rgb(0, 0, 0)" stroke="rgb(204, 204, 204)" stroke-width="1px"></line><line x1="40" y1="144.81818181818187" x2="35" y2="144.81818181818187" style="visibility: inherit;" fill="rgb(0, 0, 0)" stroke="rgb(204, 204, 204)" stroke-width="1px"></line><line x1="40" y1="128.72727272727278" x2="35" y2="128.72727272727278" style="visibility: inherit;" fill="rgb(0, 0, 0)" stroke="rgb(204, 204, 204)" stroke-width="1px"></line><line x1="40" y1="112.63636363636365" x2="35" y2="112.63636363636365" style="visibility: inherit;" fill="rgb(0, 0, 0)" stroke="rgb(204, 204, 204)" stroke-width="1px"></line><line x1="40" y1="96.54545454545453" x2="35" y2="96.54545454545453" style="visibility: inherit;" fill="rgb(0, 0, 0)" stroke="rgb(204, 204, 204)" stroke-width="1px"></line><line x1="40" y1="80.45454545454544" x2="35" y2="80.45454545454544" style="visibility: inherit;" fill="rgb(0, 0, 0)" stroke="rgb(204, 204, 204)" stroke-width="1px"></line><line x1="40" y1="64.36363636363643" x2="35" y2="64.36363636363643" style="visibility: inherit;" fill="rgb(0, 0, 0)" stroke="rgb(204, 204, 204)" stroke-width="1px"></line><line x1="40" y1="48.27272727272731" x2="35" y2="48.27272727272731" style="visibility: inherit;" fill="rgb(0, 0, 0)" stroke="rgb(204, 204, 204)" stroke-width="1px"></line><line x1="40" y1="32.181818181818215" x2="35" y2="32.181818181818215" style="visibility: inherit;" fill="rgb(0, 0, 0)" stroke="rgb(204, 204, 204)" stroke-width="1px"></line><line x1="40" y1="16.090909090909097" x2="35" y2="16.090909090909097" style="visibility: inherit;" fill="rgb(0, 0, 0)" stroke="rgb(204, 204, 204)" stroke-width="1px"></line><line x1="40" y1="0" x2="35" y2="0" style="visibility: inherit;" fill="rgb(0, 0, 0)" stroke="rgb(204, 204, 204)" stroke-width="1px"></line></g><g transform="translate(30, 0)"><text x="0" y="177" dx="0em" dy="0.3em" style="text-anchor: end; visibility: hidden; font-family: Roboto, sans-serif; font-size: 12px; font-weight: 200;" fill="rgb(33, 33, 33)" stroke="none" stroke-width="1px">2.6</text><text x="0" y="160.9090909090909" dx="0em" dy="0.3em" style="text-anchor: end; visibility: inherit; font-family: Roboto, sans-serif; font-size: 12px; font-weight: 200;" fill="rgb(33, 33, 33)" stroke="none" stroke-width="1px">2.7</text><text x="0" y="144.81818181818187" dx="0em" dy="0.3em" style="text-anchor: end; visibility: hidden; font-family: Roboto, sans-serif; font-size: 12px; font-weight: 200;" fill="rgb(33, 33, 33)" stroke="none" stroke-width="1px">2.8</text><text x="0" y="128.72727272727278" dx="0em" dy="0.3em" style="text-anchor: end; visibility: inherit; font-family: Roboto, sans-serif; font-size: 12px; font-weight: 200;" fill="rgb(33, 33, 33)" stroke="none" stroke-width="1px">2.9</text><text x="0" y="112.63636363636365" dx="0em" dy="0.3em" style="text-anchor: end; visibility: hidden; font-family: Roboto, sans-serif; font-size: 12px; font-weight: 200;" fill="rgb(33, 33, 33)" stroke="none" stroke-width="1px">3</text><text x="0" y="96.54545454545453" dx="0em" dy="0.3em" style="text-anchor: end; visibility: inherit; font-family: Roboto, sans-serif; font-size: 12px; font-weight: 200;" fill="rgb(33, 33, 33)" stroke="none" stroke-width="1px">3.1</text><text x="0" y="80.45454545454544" dx="0em" dy="0.3em" style="text-anchor: end; visibility: hidden; font-family: Roboto, sans-serif; font-size: 12px; font-weight: 200;" fill="rgb(33, 33, 33)" stroke="none" stroke-width="1px">3.2</text><text x="0" y="64.36363636363643" dx="0em" dy="0.3em" style="text-anchor: end; visibility: inherit; font-family: Roboto, sans-serif; font-size: 12px; font-weight: 200;" fill="rgb(33, 33, 33)" stroke="none" stroke-width="1px">3.3</text><text x="0" y="48.27272727272731" dx="0em" dy="0.3em" style="text-anchor: end; visibility: hidden; font-family: Roboto, sans-serif; font-size: 12px; font-weight: 200;" fill="rgb(33, 33, 33)" stroke="none" stroke-width="1px">3.4</text><text x="0" y="32.181818181818215" dx="0em" dy="0.3em" style="text-anchor: end; visibility: inherit; font-family: Roboto, sans-serif; font-size: 12px; font-weight: 200;" fill="rgb(33, 33, 33)" stroke="none" stroke-width="1px">3.5</text><text x="0" y="16.090909090909097" dx="0em" dy="0.3em" style="text-anchor: end; visibility: hidden; font-family: Roboto, sans-serif; font-size: 12px; font-weight: 200;" fill="rgb(33, 33, 33)" stroke="none" stroke-width="1px">3.6</text><text x="0" y="0" dx="0em" dy="0.3em" style="text-anchor: end; visibility: hidden; font-family: Roboto, sans-serif; font-size: 12px; font-weight: 200;" fill="rgb(33, 33, 33)" stroke="none" stroke-width="1px">3.7</text></g><line x1="40" y1="0" x2="40" y2="177" fill="rgb(0, 0, 0)" stroke="rgb(204, 204, 204)" stroke-width="1px"></line></g></g><g transform="translate(40, 0)" clip-path="url(#clip_0)"><clipPath id="clip_0"><rect width="290" height="177"></rect></clipPath><g><g><g><line x1="0" y1="0" x2="0" y2="177" fill="rgb(0, 0, 0)" stroke="rgb(66, 66, 66)" stroke-width="1px" opacity="0.25"></line><line x1="36.25" y1="0" x2="36.25" y2="177" fill="rgb(0, 0, 0)" stroke="rgb(66, 66, 66)" stroke-width="1px" opacity="0.25"></line><line x1="72.5" y1="0" x2="72.5" y2="177" fill="rgb(0, 0, 0)" stroke="rgb(66, 66, 66)" stroke-width="1px" opacity="0.25"></line><line x1="108.75" y1="0" x2="108.75" y2="177" fill="rgb(0, 0, 0)" stroke="rgb(66, 66, 66)" stroke-width="1px" opacity="0.25"></line><line x1="145" y1="0" x2="145" y2="177" fill="rgb(0, 0, 0)" stroke="rgb(66, 66, 66)" stroke-width="1px" opacity="0.25"></line><line x1="181.25" y1="0" x2="181.25" y2="177" fill="rgb(0, 0, 0)" stroke="rgb(66, 66, 66)" stroke-width="1px" opacity="0.25"></line><line x1="217.5" y1="0" x2="217.5" y2="177" fill="rgb(0, 0, 0)" stroke="rgb(66, 66, 66)" stroke-width="1px" opacity="0.25"></line><line x1="253.75" y1="0" x2="253.75" y2="177" fill="rgb(0, 0, 0)" stroke="rgb(66, 66, 66)" stroke-width="1px" opacity="0.25"></line><line x1="290" y1="0" x2="290" y2="177" fill="rgb(0, 0, 0)" stroke="rgb(66, 66, 66)" stroke-width="1px" opacity="0.25"></line></g><g><line x1="0" y1="177" x2="290" y2="177" fill="rgb(0, 0, 0)" stroke="rgb(66, 66, 66)" stroke-width="1px" opacity="0.25"></line><line x1="0" y1="160.9090909090909" x2="290" y2="160.9090909090909" fill="rgb(0, 0, 0)" stroke="rgb(66, 66, 66)" stroke-width="1px" opacity="0.25"></line><line x1="0" y1="144.81818181818187" x2="290" y2="144.81818181818187" fill="rgb(0, 0, 0)" stroke="rgb(66, 66, 66)" stroke-width="1px" opacity="0.25"></line><line x1="0" y1="128.72727272727278" x2="290" y2="128.72727272727278" fill="rgb(0, 0, 0)" stroke="rgb(66, 66, 66)" stroke-width="1px" opacity="0.25"></line><line x1="0" y1="112.63636363636365" x2="290" y2="112.63636363636365" fill="rgb(0, 0, 0)" stroke="rgb(66, 66, 66)" stroke-width="1px" opacity="0.25"></line><line x1="0" y1="96.54545454545453" x2="290" y2="96.54545454545453" fill="rgb(0, 0, 0)" stroke="rgb(66, 66, 66)" stroke-width="1px" opacity="0.25"></line><line x1="0" y1="80.45454545454544" x2="290" y2="80.45454545454544" fill="rgb(0, 0, 0)" stroke="rgb(66, 66, 66)" stroke-width="1px" opacity="0.25"></line><line x1="0" y1="64.36363636363643" x2="290" y2="64.36363636363643" fill="rgb(0, 0, 0)" stroke="rgb(66, 66, 66)" stroke-width="1px" opacity="0.25"></line><line x1="0" y1="48.27272727272731" x2="290" y2="48.27272727272731" fill="rgb(0, 0, 0)" stroke="rgb(66, 66, 66)" stroke-width="1px" opacity="0.25"></line><line x1="0" y1="32.181818181818215" x2="290" y2="32.181818181818215" fill="rgb(0, 0, 0)" stroke="rgb(66, 66, 66)" stroke-width="1px" opacity="0.25"></line><line x1="0" y1="16.090909090909097" x2="290" y2="16.090909090909097" fill="rgb(0, 0, 0)" stroke="rgb(66, 66, 66)" stroke-width="1px" opacity="0.25"></line><line x1="0" y1="0" x2="290" y2="0" fill="rgb(0, 0, 0)" stroke="rgb(66, 66, 66)" stroke-width="1px" opacity="0.25"></line></g></g></g><g><g><line x1="0" y1="595.3636363636363" x2="290" y2="595.3636363636363" fill="rgb(0, 0, 0)" stroke="rgb(153, 153, 153)" stroke-width="1.5px"></line></g></g><g><g><line x1="36.25" y1="0" x2="36.25" y2="177" fill="rgb(0, 0, 0)" stroke="rgb(153, 153, 153)" stroke-width="1.5px"></line></g></g><g><g><g><g><g><path stroke="rgb(0, 119, 187)" stroke-width="2px" d="M39.875,-4.649786060506637L43.5,0.12006684623544772L47.125,4.00677507510174L50.75,8.172223696505108L54.375,11.983697300753091L58,15.324731906511076L61.625,18.687112842427688L65.25,21.671640984839833L68.875,24.901745569140374L72.5,28.21749761373625L76.125,30.83095487560602L79.75,33.37301700773743L83.375,36.23396752270866L87,38.6005636480112L90.625,40.5944600719479L94.25,42.440567382807345L97.875,44.392226683886214L101.5,46.98893145869808L105.125,49.130340480515024L108.75,51.472186790038016L112.375,53.050299682516254L116,54.50848512559497L119.625,56.11722901935491L123.25,57.91820340566424L126.875,59.783891891710354L130.5,61.45310160771186L134.125,63.0284865179938L137.75,64.77914035815442L141.375,66.41218516379578L145,67.81146540597652L148.625,69.60039738994496L152.25,71.02829863149111L155.875,72.48949807230008L159.5,74.02723990763451L163.125,75.18370417559737L166.75,76.31660176124872L170.375,77.79646933458865L174,79.40154585340262L177.625,80.87696221943595L181.25,82.2680760081757L184.875,83.51446368980588L188.5,84.6033343955334L192.125,86.26867632314428L195.75,87.67226574581474L199.375,88.83242392080011L203,90.11482383716931L206.625,91.0570846584907L210.25,92.3636128147376L213.875,93.17711580688562L217.5,94.48555663165976L221.125,96.07610572485565L224.75,97.53881581057067L228.375,98.94231634666765L232,99.57949303856405L235.625,100.96904611153012L239.25,102.14011779004292L242.875,103.16248401312058L246.5,104.26264724048072L250.125,105.27955843428767L253.75,106.43336505435809L257.375,107.69980041231463L261,108.16771374209537L264.625,109.32702154609397L268.25,110.49444925439423L271.875,111.36877024399837L275.5,112.43883350898126L279.125,112.72801734615584L282.75,114.14468087375243" style="fill: none;" fill="none"></path></g><g><path stroke="rgb(255, 112, 67)" stroke-width="2px" d="M36.25,11.658265503970014L39.875,18.29504464973105L43.5,26.656079090592616L47.125,32.25294253819775L50.75,36.5681127654169L54.375,41.65898884989856L58,46.32154320988834L61.625,51.12396166017085L65.25,54.10465306691154L68.875,58.99564492872902L72.5,62.997424879662034L76.125,65.16640117893131L79.75,68.84948012054782L83.375,72.41959505829506L87,73.60062027430926L90.625,76.65614323962122L94.25,79.55516738408326L97.875,82.9184302505455L101.5,84.95209893639725L105.125,86.79884600387412L108.75,89.8551260737928L112.375,91.0097891349665L116,94.26681298220042L119.625,94.65729832156218L123.25,97.12479268256664L126.875,99.5734178730783L130.5,101.9938119735136L134.125,104.18372019381844L137.75,106.48328989551172L141.375,107.91325696342423L145,109.74711801425127L148.625,112.04108326917367L152.25,114.15757516549832L155.875,116.83121402272587L159.5,117.1747501862037L163.125,118.63050091409099L166.75,120.40223010334789L170.375,122.30125903893658L174,122.88377333570382L177.625,124.70818268075752L181.25,125.47033762503489L184.875,127.40131906432016L188.5,131.94527575525612L192.125,133.37147271478102L195.75,135.43044585026294L199.375,137.976917426532L203,137.95625661547544L206.625,139.07282758741886L210.25,140.84333313320244L213.875,141.1923168556046L217.5,143.54660715092194L221.125,146.77235800338659L224.75,147.6098082485222L228.375,149.94873417424677L232,149.50588956696456L235.625,151.19734617983784L239.25,151.9296330094721L242.875,152.95563237387628L246.5,154.09434428957692L250.125,156.44188154752888L253.75,158.50479683831304L257.375,160.982445994889L261,162.15448370189165L264.625,164.17807804059856L268.25,165.47732536772736L271.875,165.10564000421127L275.5,164.8555440020274L279.125,168.5886925081167L282.75,170.33200166126431" style="fill: none;" fill="none"></path></g></g></g></g><g opacity="0.2"><g><g><g><path stroke="rgb(0, 119, 187)" stroke-width="2px" d="M39.875,-1.7043157924305095L43.5,4.699125636707674L47.125,8.577543952248336L50.75,13.610633416609362L54.375,17.25633742592555L58,20.10246484929868L61.625,23.589496525851196L65.25,26.07324028015139L68.875,29.698074427518L72.5,33.161052053624964L76.125,34.73691844940188L79.75,37.17780993201518L83.375,40.51978839527479L87,42.14767599105837L90.625,43.58389845761389L94.25,45.208947138352855L97.875,47.31922010941942L101.5,50.88359303907917L105.125,52.34225827997384L108.75,54.98482782190499L112.375,55.41741709275682L116,56.69573450088503L119.625,58.53032580288975L123.25,60.6196521845731L126.875,62.582416664470344L130.5,63.956911910663976L134.125,65.3915614648299L137.75,67.4051195057956L141.375,68.86175146969883L145,69.9103853052313L148.625,72.28379500995985L152.25,73.17015032334764L155.875,74.68129712885079L159.5,76.33385259454903L163.125,76.91840054772119L166.75,78.01594812219795L170.375,80.01627068086106L174,81.80916062268345L177.625,83.09008676355538L181.25,84.35474668849601L184.875,85.38404521075165L188.5,86.23664045333864L192.125,88.76668921383946L195.75,89.77764987945558L199.375,90.57266118309718L203,92.03842371160334L206.625,92.47047589041972L210.25,94.32340504906396L213.875,94.39737029509112L217.5,96.44821786880495L221.125,98.46192936463792L224.75,99.73288093913688L228.375,101.04756715080957L232,100.53525807640771L235.625,103.0533757209778L239.25,103.89672530781141L242.875,104.69603334773673L246.5,105.9128920815208L250.125,106.8049252249978L253.75,108.16407498446381L257.375,109.59945344924928L261,108.86958373676649L264.625,111.06598325209185L268.25,112.24559081684461L271.875,112.68025172840467L275.5,114.04392840645532L279.125,113.16179310191764L282.75,116.26967616514727" style="fill: none;" fill="none"></path></g><g><path stroke="rgb(255, 112, 67)" stroke-width="2px" d="M36.25,11.658265503970094L39.875,22.27711213718763L43.5,34.68267215381971L47.125,38.83485395258126L50.75,42.20199901407418L54.375,48.70150319012732L58,52.98907054554334L61.625,58.125933863899945L65.25,58.50059392235497L68.875,66.25819782777269L72.5,68.96379895643757L76.125,68.40806215459654L79.75,74.36207264119932L83.375,77.7677732380954L87,75.3707698475231L90.625,81.2372726960616L94.25,83.90247683091599L97.875,87.96247061816132L101.5,88.0022921562195L105.125,89.56879780509257L108.75,94.43937856500801L112.375,92.74174573204738L116,99.15228444879708L119.625,95.24302170493388L123.25,100.82601668617944L126.875,103.24634521657771L130.5,105.62439693104139L134.125,107.46857916225089L137.75,109.93264232982291L141.375,110.05820677497172L145,112.49790898236363L148.625,115.48203069513497L152.25,117.33231275731868L155.875,120.84167211705989L159.5,117.69005441665651L163.125,120.8141269683838L166.75,123.05982385982169L170.375,125.14980242469096L174,123.75754477761011L177.625,127.44479669224134L181.25,126.61357003992256L184.875,130.29779122092506L188.5,138.76121078838003L192.125,135.51076815345073L195.75,138.5189055529508L199.375,141.79662479053846L203,137.92526539889252L206.625,140.74768404527146L210.25,143.49909145181832L213.875,141.71579243920067L217.5,147.07804259386933L221.125,151.61098428206012L224.75,148.86598361622205L228.375,153.45712306282738L232,148.84162265604195L235.625,153.73453109914607L239.25,153.0280632539229L242.875,154.4946314204823L246.5,155.80241216312757L250.125,159.9631874344566L253.75,161.59916977448898L257.375,164.698919729753L261,163.91254026239568L264.625,167.2134695486589L268.25,167.42619635842064L271.875,164.54811195893723L275.5,164.48039999875158L279.125,174.18841526725078L282.75,172.94696539098567" style="fill: none;" fill="none"></path></g></g></g></g></g></g><g transform="translate(40, 177)" clip-path="url(#clip_1)"><clipPath id="clip_1"><rect width="290" height="23"></rect></clipPath><g><g><line x1="0" y1="0" x2="0" y2="5" style="visibility: inherit;" fill="rgb(0, 0, 0)" stroke="rgb(204, 204, 204)" stroke-width="1px"></line><line x1="36.25" y1="0" x2="36.25" y2="5" style="visibility: inherit;" fill="rgb(0, 0, 0)" stroke="rgb(204, 204, 204)" stroke-width="1px"></line><line x1="72.5" y1="0" x2="72.5" y2="5" style="visibility: inherit;" fill="rgb(0, 0, 0)" stroke="rgb(204, 204, 204)" stroke-width="1px"></line><line x1="108.75" y1="0" x2="108.75" y2="5" style="visibility: inherit;" fill="rgb(0, 0, 0)" stroke="rgb(204, 204, 204)" stroke-width="1px"></line><line x1="145" y1="0" x2="145" y2="5" style="visibility: inherit;" fill="rgb(0, 0, 0)" stroke="rgb(204, 204, 204)" stroke-width="1px"></line><line x1="181.25" y1="0" x2="181.25" y2="5" style="visibility: inherit;" fill="rgb(0, 0, 0)" stroke="rgb(204, 204, 204)" stroke-width="1px"></line><line x1="217.5" y1="0" x2="217.5" y2="5" style="visibility: inherit;" fill="rgb(0, 0, 0)" stroke="rgb(204, 204, 204)" stroke-width="1px"></line><line x1="253.75" y1="0" x2="253.75" y2="5" style="visibility: inherit;" fill="rgb(0, 0, 0)" stroke="rgb(204, 204, 204)" stroke-width="1px"></line><line x1="290" y1="0" x2="290" y2="5" style="visibility: inherit;" fill="rgb(0, 0, 0)" stroke="rgb(204, 204, 204)" stroke-width="1px"></line></g><g transform="translate(0, 8)"><text x="0" y="0" dx="0em" dy="0.95em" style="text-anchor: middle; visibility: hidden; font-family: Roboto, sans-serif; font-size: 12px; font-weight: 200;" fill="rgb(33, 33, 33)" stroke="none" stroke-width="1px">-10</text><text x="36.25" y="0" dx="0em" dy="0.95em" style="text-anchor: middle; visibility: inherit; font-family: Roboto, sans-serif; font-size: 12px; font-weight: 200;" fill="rgb(33, 33, 33)" stroke="none" stroke-width="1px">0</text><text x="72.5" y="0" dx="0em" dy="0.95em" style="text-anchor: middle; visibility: inherit; font-family: Roboto, sans-serif; font-size: 12px; font-weight: 200;" fill="rgb(33, 33, 33)" stroke="none" stroke-width="1px">10</text><text x="108.75" y="0" dx="0em" dy="0.95em" style="text-anchor: middle; visibility: inherit; font-family: Roboto, sans-serif; font-size: 12px; font-weight: 200;" fill="rgb(33, 33, 33)" stroke="none" stroke-width="1px">20</text><text x="145" y="0" dx="0em" dy="0.95em" style="text-anchor: middle; visibility: inherit; font-family: Roboto, sans-serif; font-size: 12px; font-weight: 200;" fill="rgb(33, 33, 33)" stroke="none" stroke-width="1px">30</text><text x="181.25" y="0" dx="0em" dy="0.95em" style="text-anchor: middle; visibility: inherit; font-family: Roboto, sans-serif; font-size: 12px; font-weight: 200;" fill="rgb(33, 33, 33)" stroke="none" stroke-width="1px">40</text><text x="217.5" y="0" dx="0em" dy="0.95em" style="text-anchor: middle; visibility: inherit; font-family: Roboto, sans-serif; font-size: 12px; font-weight: 200;" fill="rgb(33, 33, 33)" stroke="none" stroke-width="1px">50</text><text x="253.75" y="0" dx="0em" dy="0.95em" style="text-anchor: middle; visibility: inherit; font-family: Roboto, sans-serif; font-size: 12px; font-weight: 200;" fill="rgb(33, 33, 33)" stroke="none" stroke-width="1px">60</text><text x="290" y="0" dx="0em" dy="0.95em" style="text-anchor: middle; visibility: hidden; font-family: Roboto, sans-serif; font-size: 12px; font-weight: 200;" fill="rgb(33, 33, 33)" stroke="none" stroke-width="1px">70</text></g><line x1="0" y1="0" x2="290" y2="0" fill="rgb(0, 0, 0)" stroke="rgb(204, 204, 204)" stroke-width="1px"></line></g></g></g></g></svg>