<svg viewBox="0 0 330 200" xmlns="http://www.w3.org/2000/svg"><g><g><g><g><g><line x1="50" y1="177" x2="45" y2="177" style="visibility: inherit;" fill="rgb(0, 0, 0)" stroke="rgb(204, 204, 204)" stroke-width="1px"></line><line x1="50" y1="154.875" x2="45" y2="154.875" style="visibility: inherit;" fill="rgb(0, 0, 0)" stroke="rgb(204, 204, 204)" stroke-width="1px"></line><line x1="50" y1="132.75000000000003" x2="45" y2="132.75000000000003" style="visibility: inherit;" fill="rgb(0, 0, 0)" stroke="rgb(204, 204, 204)" stroke-width="1px"></line><line x1="50" y1="110.625" x2="45" y2="110.625" style="visibility: inherit;" fill="rgb(0, 0, 0)" stroke="rgb(204, 204, 204)" stroke-width="1px"></line><line x1="50" y1="88.49999999999996" x2="45" y2="88.49999999999996" style="visibility: inherit;" fill="rgb(0, 0, 0)" stroke="rgb(204, 204, 204)" stroke-width="1px"></line><line x1="50" y1="66.375" x2="45" y2="66.375" style="visibility: inherit;" fill="rgb(0, 0, 0)" stroke="rgb(204, 204, 204)" stroke-width="1px"></line><line x1="50" y1="44.24999999999998" x2="45" y2="44.24999999999998" style="visibility: inherit;" fill="rgb(0, 0, 0)" stroke="rgb(204, 204, 204)" stroke-width="1px"></line><line x1="50" y1="22.12499999999996" x2="45" y2="22.12499999999996" style="visibility: inherit;" fill="rgb(0, 0, 0)" stroke="rgb(204, 204, 204)" stroke-width="1px"></line><line x1="50" y1="0" x2="45" y2="0" style="visibility: inherit;" fill="rgb(0, 0, 0)" stroke="rgb(204, 204, 204)" stroke-width="1px"></line></g><g transform="translate(40, 0)"><text x="0" y="177" dx="0em" dy="0.3em" style="text-anchor: end; visibility: hidden; font-family: Roboto, sans-serif; font-size: 12px; font-weight: 200;" fill="rgb(33, 33, 33)" stroke="none" stroke-width="1px">0.2</text><text x="0" y="154.875" dx="0em" dy="0.3em" style="text-anchor: end; visibility: inherit; font-family: Roboto, sans-serif; font-size: 12px; font-weight: 200;" fill="rgb(33, 33, 33)" stroke="none" stroke-width="1px">0.22</text><text x="0" y="132.75000000000003" dx="0em" dy="0.3em" style="text-anchor: end; visibility: hidden; font-family: Roboto, sans-serif; font-size: 12px; font-weight: 200;" fill="rgb(33, 33, 33)" stroke="none" stroke-width="1px">0.24</text><text x="0" y="110.625" dx="0em" dy="0.3em" style="text-anchor: end; visibility: inherit; font-family: Roboto, sans-serif; font-size: 12px; font-weight: 200;" fill="rgb(33, 33, 33)" stroke="none" stroke-width="1px">0.26</text><text x="0" y="88.49999999999996" dx="0em" dy="0.3em" style="text-anchor: end; visibility: hidden; font-family: Roboto, sans-serif; font-size: 12px; font-weight: 200;" fill="rgb(33, 33, 33)" stroke="none" stroke-width="1px">0.28</text><text x="0" y="66.375" dx="0em" dy="0.3em" style="text-anchor: end; visibility: inherit; font-family: Roboto, sans-serif; font-size: 12px; font-weight: 200;" fill="rgb(33, 33, 33)" stroke="none" stroke-width="1px">0.3</text><text x="0" y="44.24999999999998" dx="0em" dy="0.3em" style="text-anchor: end; visibility: hidden; font-family: Roboto, sans-serif; font-size: 12px; font-weight: 200;" fill="rgb(33, 33, 33)" stroke="none" stroke-width="1px">0.32</text><text x="0" y="22.12499999999996" dx="0em" dy="0.3em" style="text-anchor: end; visibility: inherit; font-family: Roboto, sans-serif; font-size: 12px; font-weight: 200;" fill="rgb(33, 33, 33)" stroke="none" stroke-width="1px">0.34</text><text x="0" y="0" dx="0em" dy="0.3em" style="text-anchor: end; visibility: hidden; font-family: Roboto, sans-serif; font-size: 12px; font-weight: 200;" fill="rgb(33, 33, 33)" stroke="none" stroke-width="1px">0.36</text></g><line x1="50" y1="0" x2="50" y2="177" fill="rgb(0, 0, 0)" stroke="rgb(204, 204, 204)" stroke-width="1px"></line></g></g><g transform="translate(50, 0)" clip-path="url(#clip_0)"><clipPath id="clip_0"><rect width="280" height="177"></rect></clipPath><g><g><g><line x1="0" y1="0" x2="0" y2="177" fill="rgb(0, 0, 0)" stroke="rgb(66, 66, 66)" stroke-width="1px" opacity="0.25"></line><line x1="35" y1="0" x2="35" y2="177" fill="rgb(0, 0, 0)" stroke="rgb(66, 66, 66)" stroke-width="1px" opacity="0.25"></line><line x1="70" y1="0" x2="70" y2="177" fill="rgb(0, 0, 0)" stroke="rgb(66, 66, 66)" stroke-width="1px" opacity="0.25"></line><line x1="105" y1="0" x2="105" y2="177" fill="rgb(0, 0, 0)" stroke="rgb(66, 66, 66)" stroke-width="1px" opacity="0.25"></line><line x1="140" y1="0" x2="140" y2="177" fill="rgb(0, 0, 0)" stroke="rgb(66, 66, 66)" stroke-width="1px" opacity="0.25"></line><line x1="175" y1="0" x2="175" y2="177" fill="rgb(0, 0, 0)" stroke="rgb(66, 66, 66)" stroke-width="1px" opacity="0.25"></line><line x1="210" y1="0" x2="210" y2="177" fill="rgb(0, 0, 0)" stroke="rgb(66, 66, 66)" stroke-width="1px" opacity="0.25"></line><line x1="245" y1="0" x2="245" y2="177" fill="rgb(0, 0, 0)" stroke="rgb(66, 66, 66)" stroke-width="1px" opacity="0.25"></line><line x1="280" y1="0" x2="280" y2="177" fill="rgb(0, 0, 0)" stroke="rgb(66, 66, 66)" stroke-width="1px" opacity="0.25"></line></g><g><line x1="0" y1="177" x2="280" y2="177" fill="rgb(0, 0, 0)" stroke="rgb(66, 66, 66)" stroke-width="1px" opacity="0.25"></line><line x1="0" y1="154.875" x2="280" y2="154.875" fill="rgb(0, 0, 0)" stroke="rgb(66, 66, 66)" stroke-width="1px" opacity="0.25"></line><line x1="0" y1="132.75000000000003" x2="280" y2="132.75000000000003" fill="rgb(0, 0, 0)" stroke="rgb(66, 66, 66)" stroke-width="1px" opacity="0.25"></line><line x1="0" y1="110.625" x2="280" y2="110.625" fill="rgb(0, 0, 0)" stroke="rgb(66, 66, 66)" stroke-width="1px" opacity="0.25"></line><line x1="0" y1="88.49999999999996" x2="280" y2="88.49999999999996" fill="rgb(0, 0, 0)" stroke="rgb(66, 66, 66)" stroke-width="1px" opacity="0.25"></line><line x1="0" y1="66.375" x2="280" y2="66.375" fill="rgb(0, 0, 0)" stroke="rgb(66, 66, 66)" stroke-width="1px" opacity="0.25"></line><line x1="0" y1="44.24999999999998" x2="280" y2="44.24999999999998" fill="rgb(0, 0, 0)" stroke="rgb(66, 66, 66)" stroke-width="1px" opacity="0.25"></line><line x1="0" y1="22.12499999999996" x2="280" y2="22.12499999999996" fill="rgb(0, 0, 0)" stroke="rgb(66, 66, 66)" stroke-width="1px" opacity="0.25"></line><line x1="0" y1="0" x2="280" y2="0" fill="rgb(0, 0, 0)" stroke="rgb(66, 66, 66)" stroke-width="1px" opacity="0.25"></line></g></g></g><g><g><line x1="0" y1="398.25" x2="280" y2="398.25" fill="rgb(0, 0, 0)" stroke="rgb(153, 153, 153)" stroke-width="1.5px"></line></g></g><g><g><line x1="35" y1="0" x2="35" y2="177" fill="rgb(0, 0, 0)" stroke="rgb(153, 153, 153)" stroke-width="1.5px"></line></g></g><g><g><g><g><g><path stroke="rgb(0, 119, 187)" stroke-width="2px" d="M49,179.24584148293215L52.5,174.76820580764385L56,170.82100247236832L59.5,168.24816151535535L63,162.88836894905558L66.5,160.25419619912932L70,157.5927387588916L73.5,153.55046742768596L77,150.58642285457705L80.5,147.45037575265405L84,143.9387248892062L87.5,139.38584766846927L91,138.28605520225307L94.5,137.0826273955143L98,134.45789584456008L101.5,132.33952313844006L105,130.79674158314234L108.5,129.87109431035938L112,129.58751742948982L115.5,128.60195106664722L119,127.46700302094622L122.5,126.78603625861078L126,125.5620383062403L129.5,124.28403033145608L133,122.97360958351133L136.5,121.91554925113873L140,120.19349371461445L143.5,117.80123295561025L147,116.09406847654982L150.5,112.89531790627976L154,112.06330017157973L157.5,110.20506205077741L161,109.6337222714577L164.5,106.8446715793373L168,104.89943303755834L171.5,102.64507057122185L175,100.47702869510688L178.5,98.90439543789066L182,97.96081548404533L185.5,94.40480442862801L189,92.54300592832936L192.5,91.69773496082031L196,90.64695611526972L199.5,88.92926946535067L203,88.71406868549505L206.5,86.13870139985576L210,84.5934810284855L213.5,82.5791294630756L217,81.91412160136524L220.5,82.33054128192839L224,81.4931605601483L227.5,78.81629344190095L231,76.66655690589462L234.5,76.19213938187897L238,74.00484512729237L241.5,71.60523604442336L245,69.35005938464191L248.5,69.08417273136249L252,67.83742139680542L255.5,65.45853498842331L259,65.1184224859835L262.5,64.0989437744594L266,63.75906468007426L269.5,64.91416469856185L273,63.704580969477206" style="fill: none;" fill="none"></path></g><g><path stroke="rgb(255, 112, 67)" stroke-width="2px" d="M35,166.67772318050262L38.5,163.3883416727185L42,153.80604690381764L45.5,148.79834984304551L49,146.24411157818258L52.5,140.285976771921L56,136.26534407933502L59.5,133.1664595832024L63,130.99777039286172L66.5,127.38765157507012L70,120.66908693311343L73.5,117.47026985817023L77,114.26347354972846L80.5,111.25466627031882L84,112.64415717829624L87.5,109.19790208148696L91,105.70443068105446L94.5,101.70706314611235L98,101.88962150888241L101.5,98.06024694640521L105,95.69479455867665L108.5,93.93601259289048L112,88.60240034426388L115.5,89.20523126063769L119,86.30725200388865L122.5,85.04382815561578L126,83.1313114982697L129.5,75.32864690021435L133,73.97462172504864L136.5,76.82934269057714L140,75.96159954927103L143.5,73.26784682031645L147,71.78741367397163L150.5,70.89915383140863L154,68.53263044032617L157.5,66.16198799056318L161,64.40005007215204L164.5,59.81157072168217L168,60.86143641873627L171.5,57.009310804846926L175,56.59950549154974L178.5,54.92752306231566L182,49.9176593889357L185.5,46.164733681598506L189,46.6972741595579L192.5,44.36832089181162L196,42.42766235436938L199.5,41.53491711415396L203,41.61045912681647L206.5,39.00729359254297L210,38.46403847077266L213.5,36.23661534749084L217,32.99869142330679L220.5,31.87086034033775L224,32.212805889333005L227.5,30.24485328631606L231,29.879004996043395L234.5,28.505033475769523L238,26.865727292068456L241.5,20.10981766376917L245,19.45175694521677L248.5,20.686753869631445L252,17.081525346981614L255.5,12.40572902640521L259,12.995736292486331L262.5,14.368384850910207L266,13.969608859950911L269.5,14.001979960044999L273,10.21844933214232" style="fill: none;" fill="none"></path></g></g></g></g><g opacity="0.2"><g><g><g><path stroke="rgb(0, 119, 187)" stroke-width="2px" d="M45.5,181.4847946241498L49,176.04868142679337L52.5,168.57402371987703L56,165.17643854767084L59.5,164.49693470075727L63,154.9837159998715L66.5,156.3427566625178L70,153.62469182163477L73.5,147.50905829295516L77,146.15003411471844L80.5,142.75244894251227L84,138.6753764078021L87.5,132.5597428791225L91,136.63683189824224L94.5,135.27779123559594L98,130.52119836956263L101.5,129.16215770691633L105,128.48265386000276L108.5,128.48265386000276L112,129.16215770691633L115.5,127.12361319735646L119,125.76458901911974L122.5,125.76458901911974L126,123.72604450955987L129.5,122.36702033132315L133,121.00797966867685L136.5,120.3284593373537L140,117.61041098088026L143.5,114.21284229308367L147,113.53332196176052L150.5,108.09719227999449L154,110.81527360528708L157.5,107.41770491749048L161,108.77671261131763L164.5,102.6610955670476L168,101.98157523572445L171.5,99.263526879251L175,97.22496588528156L178.5,96.54544555395842L182,96.54544555395842L185.5,89.07078784704208L189,89.75030817836523L192.5,90.42982850968838L196,89.07078784704208L199.5,86.35273949056864L203,88.39126751571894L206.5,82.2756504714489L210,82.2756504714489L213.5,79.55760211497545L217,80.9166098088026L220.5,82.95517080277205L224,80.23708947747946L227.5,74.80099276453257L231,73.44195210188627L234.5,75.48051309585571L238,70.72390374541283L241.5,68.00582242012024L245,65.96729439496994L248.5,68.68534275144339L252,65.96729439496994L255.5,61.8902053758502L259,64.60825373232365L262.5,62.56972570717335L266,63.249246038496494L269.5,66.64681472629309L273,61.8902053758502" style="fill: none;" fill="none"></path></g><g><path stroke="rgb(255, 112, 67)" stroke-width="2px" d="M35,166.67772318050268L38.5,161.41471276804805L42,144.60704392567277L45.5,142.90929809957743L49,142.90929809957743L52.5,132.04373140633106L56,130.51577499881387L59.5,128.64825623854995L63,127.79937508329749L66.5,122.02704586833715L70,110.65217685699463L73.5,112.68945206701756L77,109.46374983340502L80.5,106.74734991788864L84,114.72676024585962L87.5,104.03095000237226L91,100.46570190042257L94.5,95.71202677488327L98,102.16343124210835L101.5,92.31653512269258L105,92.14674570411444L108.5,91.29789751768112L112,80.60208727419376L115.5,90.10947049409151L119,81.96030371636152L122.5,83.14869777113199L126,80.26254140585661L129.5,63.62466198205948L133,71.94358520954847L136.5,81.11142256110907L140,74.65998512506485L143.5,69.22721826285124L147,69.56676413118839L150.5,69.56676413118839L154,64.9828454554081L157.5,62.606024377048016L161,61.75714322179556L164.5,52.92885173857212L168,62.43623495846987L171.5,51.23112239688635L175,55.98479752242565L178.5,52.41954942047596L182,42.40286388248205L185.5,40.53534512221813L189,47.49608487635851L192.5,40.874890990555286L196,39.51667454838753L199.5,40.19579925388098L203,41.72377214580774L206.5,35.10254529118538L210,37.64915578812361L213.5,32.895480662584305L217,28.14180553704498L220.5,30.17911371588705L224,32.7257242128253L227.5,27.292924381792524L231,29.33023256063459L234.5,26.44407619535921L238,24.40676801651714L241.5,9.975953221321086L245,18.464665867388227L248.5,22.53924925625322L252,11.673682563006858L255.5,5.39203454554079L259,13.880747191607933L262.5,16.42735768854616L266,13.371444873511772L269.5,14.05053661018608L273,4.543153390288333" style="fill: none;" fill="none"></path></g></g></g></g></g></g><g transform="translate(50, 177)" clip-path="url(#clip_1)"><clipPath id="clip_1"><rect width="280" height="23"></rect></clipPath><g><g><line x1="0" y1="0" x2="0" y2="5" style="visibility: inherit;" fill="rgb(0, 0, 0)" stroke="rgb(204, 204, 204)" stroke-width="1px"></line><line x1="35" y1="0" x2="35" y2="5" style="visibility: inherit;" fill="rgb(0, 0, 0)" stroke="rgb(204, 204, 204)" stroke-width="1px"></line><line x1="70" y1="0" x2="70" y2="5" style="visibility: inherit;" fill="rgb(0, 0, 0)" stroke="rgb(204, 204, 204)" stroke-width="1px"></line><line x1="105" y1="0" x2="105" y2="5" style="visibility: inherit;" fill="rgb(0, 0, 0)" stroke="rgb(204, 204, 204)" stroke-width="1px"></line><line x1="140" y1="0" x2="140" y2="5" style="visibility: inherit;" fill="rgb(0, 0, 0)" stroke="rgb(204, 204, 204)" stroke-width="1px"></line><line x1="175" y1="0" x2="175" y2="5" style="visibility: inherit;" fill="rgb(0, 0, 0)" stroke="rgb(204, 204, 204)" stroke-width="1px"></line><line x1="210" y1="0" x2="210" y2="5" style="visibility: inherit;" fill="rgb(0, 0, 0)" stroke="rgb(204, 204, 204)" stroke-width="1px"></line><line x1="245" y1="0" x2="245" y2="5" style="visibility: inherit;" fill="rgb(0, 0, 0)" stroke="rgb(204, 204, 204)" stroke-width="1px"></line><line x1="280" y1="0" x2="280" y2="5" style="visibility: inherit;" fill="rgb(0, 0, 0)" stroke="rgb(204, 204, 204)" stroke-width="1px"></line></g><g transform="translate(0, 8)"><text x="0" y="0" dx="0em" dy="0.95em" style="text-anchor: middle; visibility: hidden; font-family: Roboto, sans-serif; font-size: 12px; font-weight: 200;" fill="rgb(33, 33, 33)" stroke="none" stroke-width="1px">-10</text><text x="35" y="0" dx="0em" dy="0.95em" style="text-anchor: middle; visibility: inherit; font-family: Roboto, sans-serif; font-size: 12px; font-weight: 200;" fill="rgb(33, 33, 33)" stroke="none" stroke-width="1px">0</text><text x="70" y="0" dx="0em" dy="0.95em" style="text-anchor: middle; visibility: inherit; font-family: Roboto, sans-serif; font-size: 12px; font-weight: 200;" fill="rgb(33, 33, 33)" stroke="none" stroke-width="1px">10</text><text x="105" y="0" dx="0em" dy="0.95em" style="text-anchor: middle; visibility: inherit; font-family: Roboto, sans-serif; font-size: 12px; font-weight: 200;" fill="rgb(33, 33, 33)" stroke="none" stroke-width="1px">20</text><text x="140" y="0" dx="0em" dy="0.95em" style="text-anchor: middle; visibility: inherit; font-family: Roboto, sans-serif; font-size: 12px; font-weight: 200;" fill="rgb(33, 33, 33)" stroke="none" stroke-width="1px">30</text><text x="175" y="0" dx="0em" dy="0.95em" style="text-anchor: middle; visibility: inherit; font-family: Roboto, sans-serif; font-size: 12px; font-weight: 200;" fill="rgb(33, 33, 33)" stroke="none" stroke-width="1px">40</text><text x="210" y="0" dx="0em" dy="0.95em" style="text-anchor: middle; visibility: inherit; font-family: Roboto, sans-serif; font-size: 12px; font-weight: 200;" fill="rgb(33, 33, 33)" stroke="none" stroke-width="1px">50</text><text x="245" y="0" dx="0em" dy="0.95em" style="text-anchor: middle; visibility: inherit; font-family: Roboto, sans-serif; font-size: 12px; font-weight: 200;" fill="rgb(33, 33, 33)" stroke="none" stroke-width="1px">60</text><text x="280" y="0" dx="0em" dy="0.95em" style="text-anchor: middle; visibility: hidden; font-family: Roboto, sans-serif; font-size: 12px; font-weight: 200;" fill="rgb(33, 33, 33)" stroke="none" stroke-width="1px">70</text></g><line x1="0" y1="0" x2="280" y2="0" fill="rgb(0, 0, 0)" stroke="rgb(204, 204, 204)" stroke-width="1px"></line></g></g></g></g></svg>